<svg width="554" height="437" viewBox="0 0 554 437" fill="none" xmlns="http://www.w3.org/2000/svg">
<path opacity="0.6" d="M553.999 95.869L521.415 114.683L489.033 95.9875L521.617 77.1738L553.999 95.869Z" fill="white"/>
<path opacity="0.6" d="M499.603 64.8319L467.018 83.6438L434.638 64.9487L467.222 46.1367L499.603 64.8319Z" fill="white"/>
<path opacity="0.6" d="M445.501 33.5521L412.917 52.3641L380.536 33.6689L413.121 14.8569L445.501 33.5521Z" fill="white"/>
<path opacity="0.6" d="M380.21 71.0599L347.626 89.8718L315.245 71.1767L347.83 52.3647L380.21 71.0599Z" fill="white"/>
<path opacity="0.6" d="M294.023 21.0176L326.403 39.7127L293.819 58.5247L261.439 39.8296L294.023 21.0176Z" fill="white"/>
<path opacity="0.6" d="M261.439 77.2205L228.855 96.0342L196.473 77.3374L229.057 58.5254L261.439 77.2205Z" fill="white"/>
<path opacity="0.6" d="M76.8583 83.7044L109.443 64.8906L141.825 83.5858L109.24 102.399L76.8583 83.7044Z" fill="white"/>
<path opacity="0.6" d="M163.515 96.0332L195.896 114.728L163.311 133.54L130.931 114.845L163.515 96.0332Z" fill="white"/>
<path opacity="0.6" d="M76.8611 121.092L44.2766 139.904L11.8963 121.208L44.4806 102.396L76.8611 121.092Z" fill="white"/>
<path opacity="0.6" d="M98.5498 133.541L130.93 152.236L98.3458 171.048L65.9654 152.353L98.5498 133.541Z" fill="white"/>
<path opacity="0.6" d="M33.5824 171.571L65.9646 190.266L33.3801 209.078L0.99807 190.383L33.5824 171.571Z" fill="white"/>
<path opacity="0.6" d="M22.63 52.0932L55.2144 33.2812L87.5947 51.9764L55.0104 70.7884L22.63 52.0932Z" fill="white"/>
<path d="M157.182 149.644C157.373 149.644 157.558 149.582 157.71 149.467C157.862 149.352 157.971 149.19 158.023 149.007C158.074 148.823 158.064 148.628 157.993 148.451C157.923 148.274 157.797 148.124 157.634 148.026L157.335 147.852C157.237 147.792 157.129 147.753 157.016 147.736C156.902 147.719 156.787 147.724 156.676 147.751C156.565 147.779 156.46 147.828 156.368 147.896C156.275 147.964 156.198 148.049 156.138 148.147C156.079 148.245 156.04 148.354 156.023 148.467C156.005 148.58 156.011 148.696 156.038 148.807C156.066 148.918 156.115 149.023 156.183 149.115C156.25 149.207 156.336 149.285 156.434 149.344L156.732 149.519C156.868 149.601 157.023 149.644 157.182 149.644ZM161.716 147.726C161.868 147.725 162.017 147.685 162.148 147.609L162.452 147.435C162.652 147.319 162.799 147.129 162.859 146.905C162.919 146.681 162.888 146.443 162.773 146.242C162.657 146.041 162.466 145.895 162.243 145.835C162.019 145.774 161.781 145.806 161.58 145.921L161.276 146.096C161.109 146.191 160.979 146.339 160.905 146.517C160.831 146.694 160.817 146.891 160.867 147.077C160.916 147.263 161.026 147.427 161.179 147.544C161.331 147.661 161.518 147.725 161.711 147.724L161.716 147.726ZM152.408 146.76C152.598 146.76 152.783 146.698 152.935 146.583C153.087 146.468 153.197 146.306 153.248 146.122C153.299 145.939 153.289 145.744 153.219 145.566C153.149 145.389 153.022 145.24 152.859 145.142L152.561 144.967C152.363 144.848 152.126 144.811 151.901 144.867C151.676 144.922 151.483 145.064 151.363 145.262C151.243 145.46 151.207 145.697 151.262 145.922C151.317 146.147 151.46 146.34 151.658 146.46L151.958 146.634C152.091 146.715 152.244 146.758 152.401 146.76H152.408ZM166.557 144.952C166.709 144.951 166.859 144.911 166.991 144.835L167.292 144.66C167.392 144.603 167.479 144.527 167.549 144.436C167.619 144.345 167.67 144.241 167.7 144.13C167.73 144.02 167.737 143.904 167.723 143.79C167.708 143.677 167.671 143.567 167.613 143.468C167.556 143.368 167.48 143.281 167.389 143.211C167.298 143.141 167.194 143.09 167.083 143.06C166.973 143.03 166.857 143.023 166.743 143.038C166.63 143.052 166.52 143.09 166.421 143.147L166.117 143.321C165.95 143.417 165.82 143.565 165.745 143.742C165.671 143.92 165.658 144.117 165.708 144.303C165.757 144.488 165.867 144.653 166.019 144.77C166.172 144.887 166.359 144.95 166.551 144.95L166.557 144.952ZM147.631 143.874C147.822 143.874 148.007 143.812 148.159 143.697C148.311 143.582 148.421 143.42 148.472 143.236C148.523 143.053 148.513 142.858 148.443 142.681C148.372 142.503 148.246 142.354 148.083 142.256L147.783 142.081C147.585 141.962 147.348 141.926 147.123 141.981C146.899 142.037 146.705 142.179 146.586 142.377C146.466 142.575 146.43 142.812 146.486 143.037C146.541 143.261 146.683 143.454 146.881 143.574L147.181 143.748C147.315 143.83 147.468 143.873 147.624 143.874H147.631ZM171.399 142.175C171.551 142.175 171.7 142.136 171.832 142.06L172.133 141.886C172.233 141.829 172.32 141.753 172.39 141.662C172.46 141.571 172.511 141.467 172.541 141.356C172.57 141.245 172.578 141.13 172.563 141.016C172.548 140.902 172.511 140.793 172.454 140.693C172.397 140.594 172.321 140.507 172.23 140.437C172.139 140.367 172.035 140.316 171.924 140.286C171.813 140.256 171.698 140.248 171.584 140.263C171.47 140.278 171.361 140.315 171.261 140.372L170.96 140.547C170.794 140.643 170.664 140.791 170.59 140.968C170.517 141.145 170.504 141.341 170.553 141.527C170.603 141.712 170.712 141.876 170.864 141.993C171.016 142.11 171.202 142.173 171.394 142.174L171.399 142.175ZM142.855 140.99C143.046 140.99 143.231 140.928 143.383 140.813C143.535 140.697 143.645 140.536 143.696 140.352C143.747 140.169 143.737 139.973 143.666 139.796C143.596 139.619 143.47 139.47 143.307 139.371L143.007 139.197C142.809 139.078 142.571 139.042 142.347 139.097C142.122 139.152 141.929 139.295 141.81 139.493C141.69 139.691 141.654 139.928 141.71 140.152C141.765 140.377 141.907 140.57 142.105 140.69L142.403 140.864C142.538 140.945 142.691 140.988 142.848 140.99H142.855ZM176.24 139.401C176.392 139.401 176.541 139.361 176.672 139.286L176.976 139.112C177.176 138.996 177.323 138.805 177.383 138.582C177.443 138.358 177.412 138.12 177.297 137.919C177.181 137.718 176.99 137.572 176.767 137.511C176.543 137.451 176.305 137.482 176.104 137.598L175.8 137.772C175.633 137.868 175.503 138.016 175.429 138.193C175.355 138.371 175.341 138.568 175.391 138.754C175.44 138.94 175.55 139.104 175.703 139.221C175.855 139.338 176.042 139.401 176.235 139.401H176.24ZM138.079 138.104C138.269 138.104 138.455 138.042 138.607 137.927C138.758 137.811 138.868 137.65 138.919 137.466C138.971 137.283 138.96 137.087 138.89 136.91C138.82 136.733 138.694 136.584 138.53 136.486L138.231 136.311C138.033 136.192 137.795 136.156 137.571 136.211C137.346 136.266 137.153 136.409 137.033 136.607C136.914 136.805 136.878 137.042 136.933 137.266C136.989 137.491 137.131 137.684 137.329 137.804L137.629 137.978C137.762 138.059 137.916 138.103 138.072 138.104H138.079ZM181.072 136.627C181.224 136.627 181.373 136.587 181.504 136.512L181.806 136.337C181.905 136.28 181.992 136.204 182.062 136.113C182.132 136.022 182.183 135.918 182.213 135.808C182.243 135.697 182.25 135.582 182.235 135.468C182.22 135.354 182.183 135.245 182.126 135.145C182.069 135.046 181.992 134.959 181.902 134.889C181.811 134.82 181.707 134.768 181.596 134.739C181.486 134.709 181.37 134.701 181.257 134.716C181.143 134.731 181.033 134.768 180.934 134.825L180.631 135C180.464 135.095 180.333 135.244 180.259 135.421C180.185 135.599 180.172 135.796 180.221 135.982C180.271 136.168 180.381 136.332 180.534 136.449C180.687 136.566 180.874 136.629 181.067 136.629L181.072 136.627ZM133.292 135.22C133.483 135.22 133.669 135.158 133.822 135.043C133.974 134.928 134.085 134.766 134.136 134.582C134.187 134.398 134.177 134.202 134.106 134.024C134.035 133.847 133.908 133.698 133.744 133.6L133.444 133.425C133.246 133.306 133.009 133.27 132.784 133.325C132.56 133.38 132.366 133.523 132.247 133.721C132.127 133.919 132.091 134.156 132.147 134.381C132.202 134.605 132.344 134.798 132.542 134.918L132.84 135.092C132.977 135.175 133.133 135.219 133.292 135.22ZM185.913 133.852C186.064 133.852 186.213 133.813 186.345 133.737L186.648 133.563C186.849 133.447 186.995 133.257 187.055 133.033C187.115 132.81 187.084 132.572 186.968 132.371C186.853 132.171 186.662 132.024 186.439 131.964C186.215 131.904 185.977 131.935 185.777 132.051L185.475 132.225C185.308 132.321 185.177 132.469 185.103 132.646C185.029 132.824 185.016 133.021 185.065 133.207C185.115 133.393 185.225 133.557 185.377 133.674C185.53 133.791 185.717 133.854 185.909 133.854L185.913 133.852ZM128.514 132.334C128.705 132.334 128.89 132.272 129.042 132.156C129.194 132.041 129.304 131.88 129.355 131.696C129.406 131.513 129.396 131.317 129.326 131.14C129.255 130.963 129.129 130.814 128.966 130.715L128.668 130.541C128.57 130.482 128.461 130.442 128.348 130.425C128.234 130.408 128.119 130.413 128.008 130.441C127.897 130.468 127.792 130.517 127.7 130.585C127.608 130.653 127.53 130.738 127.471 130.837C127.411 130.935 127.372 131.043 127.355 131.156C127.338 131.27 127.343 131.385 127.37 131.496C127.398 131.607 127.447 131.712 127.515 131.804C127.583 131.897 127.668 131.974 127.766 132.034L128.064 132.208C128.201 132.291 128.358 132.334 128.518 132.334H128.514ZM190.753 131.078C190.905 131.078 191.054 131.038 191.186 130.963L191.489 130.789C191.69 130.673 191.837 130.482 191.897 130.259C191.957 130.035 191.926 129.797 191.81 129.596C191.695 129.395 191.504 129.249 191.28 129.188C191.056 129.128 190.818 129.159 190.617 129.275L190.314 129.449C190.147 129.545 190.016 129.693 189.942 129.87C189.868 130.048 189.855 130.245 189.904 130.431C189.954 130.617 190.064 130.781 190.216 130.898C190.369 131.015 190.556 131.078 190.748 131.078H190.753ZM123.738 129.448C123.928 129.448 124.114 129.386 124.266 129.27C124.417 129.155 124.527 128.994 124.579 128.81C124.63 128.627 124.62 128.431 124.549 128.254C124.479 128.077 124.353 127.928 124.19 127.829L123.891 127.655C123.693 127.535 123.456 127.499 123.232 127.555C123.007 127.61 122.814 127.753 122.694 127.951C122.575 128.148 122.539 128.386 122.594 128.61C122.65 128.835 122.792 129.028 122.99 129.148L123.288 129.322C123.424 129.406 123.581 129.451 123.741 129.451L123.738 129.448ZM195.596 128.304C195.748 128.303 195.897 128.263 196.028 128.187L196.33 128.012C196.531 127.897 196.677 127.706 196.737 127.483C196.798 127.259 196.766 127.02 196.651 126.82C196.535 126.619 196.345 126.472 196.121 126.412C195.897 126.352 195.659 126.383 195.458 126.499L195.156 126.673C194.989 126.769 194.859 126.917 194.785 127.094C194.711 127.272 194.697 127.469 194.747 127.655C194.796 127.84 194.906 128.005 195.059 128.122C195.211 128.239 195.398 128.302 195.591 128.302L195.596 128.304ZM118.962 126.56C119.152 126.56 119.338 126.498 119.489 126.383C119.641 126.268 119.751 126.106 119.802 125.922C119.854 125.739 119.843 125.544 119.773 125.366C119.703 125.189 119.576 125.04 119.413 124.942L119.115 124.767C118.917 124.648 118.68 124.612 118.455 124.667C118.231 124.723 118.038 124.865 117.918 125.063C117.798 125.261 117.762 125.498 117.818 125.723C117.873 125.947 118.016 126.14 118.214 126.26L118.512 126.434C118.648 126.518 118.805 126.563 118.965 126.563L118.962 126.56ZM200.437 125.524C200.588 125.524 200.737 125.484 200.869 125.409L201.173 125.235C201.272 125.177 201.359 125.101 201.429 125.01C201.499 124.919 201.55 124.815 201.58 124.705C201.61 124.594 201.617 124.478 201.603 124.365C201.588 124.251 201.551 124.141 201.493 124.042C201.436 123.942 201.36 123.855 201.269 123.785C201.178 123.715 201.074 123.664 200.963 123.634C200.853 123.605 200.737 123.597 200.623 123.612C200.51 123.627 200.4 123.664 200.301 123.721L199.999 123.895C199.833 123.991 199.703 124.139 199.63 124.316C199.556 124.494 199.543 124.69 199.592 124.875C199.642 125.061 199.751 125.224 199.903 125.341C200.055 125.458 200.241 125.522 200.433 125.522L200.437 125.524ZM114.185 123.674C114.376 123.674 114.561 123.612 114.713 123.497C114.865 123.382 114.975 123.22 115.026 123.036C115.077 122.853 115.067 122.658 114.997 122.481C114.927 122.303 114.8 122.154 114.637 122.056L114.339 121.881C114.141 121.762 113.904 121.726 113.679 121.781C113.455 121.837 113.261 121.979 113.142 122.177C113.022 122.375 112.986 122.612 113.042 122.837C113.097 123.061 113.239 123.254 113.437 123.374L113.736 123.548C113.872 123.632 114.029 123.677 114.189 123.677L114.185 123.674ZM205.277 122.75C205.43 122.75 205.579 122.71 205.712 122.635L206.013 122.46C206.214 122.345 206.361 122.154 206.421 121.93C206.481 121.707 206.45 121.468 206.334 121.267C206.219 121.067 206.028 120.92 205.804 120.86C205.581 120.8 205.342 120.831 205.141 120.947L204.838 121.121C204.671 121.217 204.54 121.365 204.466 121.542C204.392 121.72 204.379 121.917 204.428 122.102C204.478 122.288 204.588 122.452 204.74 122.57C204.893 122.687 205.08 122.75 205.272 122.75H205.277ZM370.348 121.688C370.54 121.688 370.728 121.624 370.88 121.507C371.033 121.389 371.142 121.225 371.192 121.039C371.241 120.852 371.227 120.655 371.152 120.478C371.077 120.3 370.946 120.152 370.778 120.057L370.475 119.883C370.375 119.826 370.266 119.79 370.152 119.776C370.038 119.762 369.923 119.77 369.812 119.801C369.702 119.831 369.599 119.883 369.508 119.953C369.418 120.024 369.342 120.111 369.286 120.211C369.229 120.31 369.193 120.42 369.179 120.534C369.165 120.647 369.173 120.763 369.203 120.873C369.234 120.984 369.286 121.087 369.356 121.177C369.426 121.268 369.514 121.343 369.614 121.4L369.917 121.574C370.049 121.651 370.199 121.692 370.351 121.691L370.348 121.688ZM109.409 120.79C109.6 120.79 109.785 120.728 109.937 120.613C110.089 120.497 110.199 120.336 110.25 120.152C110.301 119.969 110.291 119.773 110.221 119.596C110.15 119.419 110.024 119.27 109.861 119.171L109.563 118.997C109.465 118.938 109.356 118.899 109.243 118.881C109.13 118.864 109.014 118.869 108.903 118.897C108.792 118.924 108.687 118.973 108.595 119.041C108.503 119.109 108.425 119.195 108.366 119.293C108.306 119.391 108.267 119.499 108.25 119.613C108.233 119.726 108.238 119.841 108.265 119.952C108.293 120.064 108.342 120.168 108.41 120.26C108.478 120.353 108.563 120.431 108.661 120.49L108.959 120.664C109.096 120.747 109.253 120.792 109.413 120.793L109.409 120.79ZM210.12 119.975C210.272 119.975 210.421 119.936 210.552 119.86L210.854 119.686C210.953 119.629 211.04 119.552 211.11 119.461C211.18 119.371 211.231 119.267 211.261 119.156C211.291 119.046 211.298 118.93 211.283 118.816C211.268 118.703 211.231 118.593 211.174 118.494C211.117 118.395 211.041 118.308 210.95 118.238C210.859 118.168 210.755 118.117 210.644 118.087C210.534 118.057 210.418 118.05 210.305 118.065C210.191 118.08 210.081 118.117 209.982 118.174L209.68 118.348C209.514 118.444 209.383 118.592 209.309 118.769C209.235 118.947 209.221 119.144 209.271 119.33C209.32 119.516 209.43 119.68 209.583 119.797C209.735 119.914 209.922 119.977 210.115 119.977L210.12 119.975ZM374.807 119.564C374.969 119.564 375.129 119.519 375.267 119.433L375.563 119.248C375.76 119.126 375.899 118.93 375.951 118.705C376.004 118.479 375.964 118.242 375.842 118.046C375.719 117.85 375.523 117.71 375.298 117.658C375.072 117.606 374.836 117.645 374.639 117.768L374.344 117.953C374.184 118.053 374.06 118.203 373.993 118.38C373.925 118.556 373.916 118.75 373.968 118.932C374.021 119.114 374.131 119.274 374.282 119.388C374.433 119.502 374.617 119.564 374.807 119.564ZM365.503 118.933C365.696 118.932 365.882 118.868 366.034 118.751C366.186 118.633 366.295 118.469 366.344 118.284C366.393 118.098 366.38 117.901 366.306 117.724C366.231 117.547 366.101 117.399 365.934 117.304L365.631 117.129C365.43 117.023 365.196 116.999 364.978 117.062C364.76 117.125 364.576 117.271 364.464 117.468C364.351 117.666 364.321 117.899 364.378 118.119C364.435 118.338 364.575 118.527 364.769 118.645L365.073 118.819C365.203 118.893 365.35 118.932 365.5 118.933H365.503ZM104.961 117.912C105.112 117.912 105.26 117.872 105.392 117.797L105.693 117.623C105.796 117.568 105.887 117.493 105.961 117.403C106.034 117.313 106.089 117.208 106.121 117.096C106.154 116.984 106.164 116.867 106.15 116.751C106.136 116.635 106.1 116.524 106.042 116.422C105.984 116.321 105.907 116.232 105.814 116.161C105.722 116.09 105.616 116.039 105.503 116.009C105.391 115.98 105.273 115.973 105.158 115.99C105.042 116.007 104.931 116.047 104.832 116.108L104.528 116.282C104.361 116.377 104.229 116.525 104.154 116.703C104.08 116.88 104.066 117.078 104.115 117.264C104.165 117.45 104.275 117.615 104.428 117.732C104.581 117.85 104.768 117.913 104.961 117.912ZM214.968 117.204C215.119 117.204 215.268 117.165 215.4 117.089L215.703 116.915C215.904 116.799 216.05 116.609 216.11 116.385C216.17 116.162 216.139 115.924 216.023 115.723C215.908 115.523 215.717 115.376 215.494 115.316C215.27 115.256 215.032 115.287 214.832 115.403L214.528 115.577C214.361 115.673 214.231 115.821 214.156 115.999C214.082 116.176 214.069 116.373 214.119 116.559C214.168 116.745 214.278 116.909 214.43 117.026C214.583 117.143 214.77 117.206 214.962 117.206L214.968 117.204ZM379.539 116.61C379.703 116.61 379.863 116.564 380.001 116.477L380.296 116.292C380.397 116.234 380.485 116.156 380.556 116.062C380.626 115.969 380.677 115.862 380.705 115.749C380.733 115.635 380.738 115.517 380.72 115.402C380.702 115.286 380.66 115.176 380.599 115.077C380.537 114.977 380.456 114.892 380.36 114.825C380.264 114.757 380.156 114.71 380.042 114.686C379.927 114.661 379.809 114.66 379.695 114.682C379.58 114.704 379.471 114.749 379.374 114.814L379.077 114.999C378.917 115.099 378.793 115.249 378.725 115.426C378.657 115.602 378.649 115.796 378.701 115.978C378.753 116.16 378.863 116.32 379.015 116.434C379.166 116.548 379.35 116.61 379.539 116.61ZM360.652 116.176C360.845 116.176 361.032 116.112 361.185 115.995C361.337 115.877 361.447 115.713 361.496 115.526C361.545 115.34 361.531 115.143 361.457 114.965C361.382 114.788 361.251 114.64 361.083 114.545L360.781 114.371C360.58 114.255 360.342 114.224 360.118 114.284C359.894 114.345 359.703 114.492 359.588 114.693C359.472 114.893 359.441 115.132 359.501 115.356C359.562 115.58 359.708 115.771 359.909 115.886L360.213 116.061C360.345 116.137 360.496 116.177 360.649 116.176H360.652ZM109.809 115.152C109.96 115.152 110.108 115.113 110.239 115.039L110.541 114.864C110.644 114.81 110.735 114.735 110.808 114.644C110.882 114.554 110.936 114.45 110.969 114.338C111.002 114.226 111.011 114.108 110.998 113.993C110.984 113.877 110.947 113.765 110.89 113.664C110.832 113.562 110.755 113.473 110.662 113.402C110.57 113.332 110.464 113.28 110.351 113.251C110.238 113.221 110.121 113.215 110.005 113.232C109.89 113.249 109.779 113.288 109.679 113.349L109.376 113.523C109.208 113.618 109.077 113.766 109.002 113.944C108.928 114.122 108.914 114.319 108.963 114.505C109.013 114.692 109.122 114.856 109.275 114.974C109.428 115.091 109.616 115.154 109.809 115.154V115.152ZM219.805 114.428C219.957 114.429 220.107 114.389 220.239 114.313L220.541 114.139C220.64 114.082 220.727 114.005 220.797 113.915C220.867 113.824 220.918 113.72 220.948 113.609C220.977 113.499 220.985 113.383 220.97 113.269C220.955 113.156 220.918 113.046 220.861 112.947C220.803 112.848 220.727 112.761 220.636 112.691C220.546 112.621 220.442 112.57 220.331 112.54C220.22 112.51 220.105 112.503 219.991 112.518C219.878 112.533 219.768 112.57 219.669 112.627L219.365 112.801C219.199 112.897 219.068 113.045 218.994 113.222C218.92 113.4 218.906 113.597 218.956 113.783C219.005 113.969 219.115 114.133 219.268 114.25C219.42 114.367 219.607 114.43 219.8 114.43L219.805 114.428ZM355.799 113.417C355.992 113.418 356.18 113.354 356.333 113.237C356.485 113.12 356.595 112.955 356.645 112.769C356.694 112.582 356.68 112.385 356.606 112.207C356.531 112.029 356.399 111.882 356.232 111.787L355.928 111.612C355.829 111.555 355.719 111.519 355.605 111.505C355.491 111.49 355.376 111.499 355.266 111.529C355.155 111.559 355.052 111.611 354.961 111.682C354.871 111.752 354.795 111.839 354.738 111.939C354.682 112.039 354.645 112.149 354.631 112.262C354.617 112.376 354.625 112.491 354.655 112.602C354.686 112.712 354.737 112.816 354.808 112.906C354.878 112.997 354.966 113.073 355.065 113.129L355.369 113.304C355.5 113.378 355.648 113.417 355.799 113.417ZM114.662 112.397C114.813 112.397 114.961 112.357 115.092 112.282L115.394 112.107C115.595 111.993 115.743 111.804 115.804 111.581C115.866 111.358 115.836 111.119 115.722 110.918C115.608 110.717 115.418 110.569 115.195 110.508C114.972 110.446 114.734 110.476 114.532 110.59L114.229 110.765C114.061 110.86 113.93 111.008 113.855 111.185C113.78 111.363 113.767 111.56 113.816 111.747C113.866 111.933 113.975 112.098 114.128 112.215C114.281 112.332 114.469 112.396 114.662 112.395V112.397ZM224.647 111.664C224.799 111.664 224.948 111.624 225.08 111.548L225.383 111.373C225.584 111.258 225.731 111.067 225.791 110.843C225.851 110.62 225.82 110.381 225.704 110.18C225.588 109.98 225.398 109.833 225.174 109.773C224.951 109.713 224.712 109.744 224.511 109.86L224.21 110.034C224.043 110.13 223.912 110.278 223.838 110.455C223.764 110.633 223.751 110.83 223.8 111.015C223.85 111.201 223.959 111.366 224.112 111.483C224.265 111.6 224.452 111.663 224.644 111.663L224.647 111.664ZM350.946 110.667C351.139 110.667 351.325 110.603 351.478 110.486C351.63 110.369 351.739 110.205 351.789 110.019C351.838 109.833 351.824 109.636 351.75 109.459C351.676 109.282 351.546 109.134 351.379 109.038L351.075 108.864C350.976 108.803 350.865 108.764 350.75 108.747C350.634 108.73 350.517 108.736 350.404 108.766C350.291 108.795 350.185 108.847 350.093 108.917C350 108.988 349.923 109.077 349.865 109.179C349.808 109.28 349.771 109.392 349.757 109.507C349.744 109.623 349.753 109.741 349.786 109.853C349.818 109.965 349.873 110.069 349.947 110.159C350.02 110.25 350.111 110.325 350.214 110.379L350.517 110.554C350.649 110.625 350.797 110.661 350.946 110.658V110.667ZM119.511 109.649C119.662 109.648 119.81 109.608 119.942 109.534L120.243 109.359C120.346 109.304 120.437 109.23 120.511 109.139C120.584 109.049 120.639 108.944 120.671 108.832C120.704 108.721 120.714 108.603 120.7 108.487C120.686 108.372 120.65 108.26 120.592 108.158C120.534 108.057 120.457 107.968 120.365 107.897C120.272 107.826 120.166 107.775 120.053 107.745C119.941 107.716 119.823 107.71 119.708 107.727C119.592 107.744 119.482 107.783 119.382 107.844L119.079 108.018C118.911 108.113 118.779 108.261 118.705 108.439C118.63 108.617 118.616 108.814 118.666 109C118.715 109.187 118.825 109.351 118.978 109.469C119.131 109.586 119.318 109.649 119.511 109.649ZM229.488 108.874C229.64 108.874 229.789 108.834 229.921 108.758L230.224 108.583C230.425 108.468 230.571 108.277 230.631 108.053C230.692 107.83 230.66 107.591 230.545 107.39C230.429 107.19 230.239 107.043 230.015 106.983C229.791 106.923 229.553 106.954 229.352 107.07L229.049 107.244C228.882 107.339 228.751 107.487 228.677 107.665C228.603 107.843 228.59 108.039 228.639 108.225C228.689 108.411 228.798 108.575 228.951 108.693C229.104 108.81 229.291 108.873 229.483 108.873L229.488 108.874ZM346.095 107.894C346.288 107.895 346.475 107.832 346.628 107.714C346.781 107.597 346.891 107.432 346.94 107.246C346.99 107.06 346.976 106.862 346.901 106.685C346.827 106.507 346.695 106.359 346.528 106.264L346.224 106.09C346.023 105.975 345.785 105.946 345.562 106.007C345.451 106.038 345.348 106.09 345.257 106.16C345.167 106.23 345.091 106.318 345.035 106.417C344.978 106.517 344.942 106.627 344.928 106.74C344.914 106.854 344.922 106.969 344.953 107.08C344.983 107.19 345.035 107.294 345.105 107.384C345.176 107.474 345.263 107.55 345.363 107.607L345.666 107.781C345.796 107.858 345.944 107.9 346.095 107.901V107.894ZM124.362 106.874C124.513 106.874 124.66 106.835 124.791 106.761L125.095 106.587C125.198 106.532 125.288 106.457 125.362 106.367C125.436 106.276 125.49 106.172 125.523 106.06C125.555 105.948 125.565 105.831 125.551 105.715C125.538 105.599 125.501 105.487 125.443 105.386C125.386 105.284 125.308 105.196 125.216 105.125C125.123 105.054 125.017 105.002 124.905 104.973C124.792 104.943 124.674 104.937 124.559 104.954C124.444 104.971 124.333 105.011 124.233 105.071L123.93 105.246C123.762 105.341 123.631 105.489 123.556 105.666C123.481 105.844 123.467 106.041 123.517 106.228C123.566 106.414 123.676 106.579 123.829 106.696C123.982 106.813 124.169 106.877 124.362 106.876V106.874ZM234.331 106.098C234.482 106.098 234.631 106.059 234.763 105.983L235.065 105.809C235.164 105.752 235.251 105.675 235.321 105.584C235.391 105.493 235.442 105.39 235.472 105.279C235.502 105.168 235.51 105.053 235.495 104.939C235.48 104.825 235.443 104.715 235.386 104.616C235.328 104.517 235.252 104.43 235.161 104.36C235.07 104.29 234.966 104.238 234.856 104.209C234.745 104.179 234.629 104.171 234.516 104.186C234.402 104.201 234.292 104.238 234.193 104.295L233.889 104.47C233.722 104.565 233.592 104.713 233.518 104.891C233.443 105.069 233.43 105.266 233.48 105.452C233.53 105.638 233.64 105.802 233.793 105.919C233.946 106.036 234.133 106.099 234.325 106.098H234.331ZM341.246 105.136C341.438 105.136 341.626 105.072 341.778 104.955C341.931 104.837 342.04 104.673 342.089 104.487C342.139 104.3 342.125 104.103 342.05 103.926C341.975 103.748 341.844 103.6 341.676 103.505L341.373 103.331C341.173 103.224 340.938 103.2 340.721 103.263C340.503 103.327 340.318 103.473 340.206 103.67C340.094 103.867 340.063 104.1 340.12 104.32C340.177 104.54 340.317 104.729 340.512 104.846L340.815 105.021C340.945 105.098 341.094 105.14 341.246 105.143V105.136ZM129.213 104.117C129.364 104.117 129.513 104.077 129.644 104.002L129.946 103.828C130.147 103.714 130.295 103.524 130.356 103.301C130.418 103.078 130.388 102.84 130.274 102.639C130.159 102.437 129.97 102.29 129.747 102.228C129.524 102.167 129.286 102.197 129.084 102.311L128.781 102.485C128.613 102.58 128.482 102.728 128.407 102.906C128.332 103.084 128.319 103.281 128.368 103.467C128.417 103.654 128.527 103.818 128.68 103.936C128.833 104.053 129.021 104.116 129.213 104.116V104.117ZM239.171 103.324C239.323 103.324 239.472 103.284 239.604 103.209L239.907 103.034C240.007 102.977 240.094 102.901 240.164 102.81C240.234 102.719 240.285 102.615 240.315 102.505C240.344 102.394 240.352 102.278 240.337 102.164C240.322 102.051 240.285 101.941 240.228 101.842C240.171 101.742 240.095 101.655 240.004 101.585C239.913 101.515 239.809 101.464 239.698 101.434C239.587 101.404 239.472 101.397 239.358 101.412C239.244 101.426 239.135 101.464 239.035 101.521L238.734 101.695C238.567 101.791 238.436 101.939 238.362 102.116C238.288 102.294 238.275 102.491 238.324 102.677C238.374 102.862 238.483 103.027 238.636 103.144C238.789 103.261 238.976 103.324 239.168 103.324H239.171ZM336.394 102.379C336.587 102.379 336.774 102.315 336.927 102.198C337.08 102.08 337.189 101.916 337.238 101.73C337.287 101.543 337.274 101.346 337.199 101.169C337.124 100.991 336.993 100.843 336.825 100.748L336.523 100.574C336.323 100.46 336.084 100.43 335.861 100.491C335.638 100.552 335.449 100.699 335.334 100.9C335.22 101.101 335.19 101.339 335.251 101.562C335.312 101.785 335.459 101.975 335.66 102.089L335.964 102.264C336.094 102.341 336.243 102.383 336.394 102.386V102.379ZM134.065 101.376C134.215 101.375 134.363 101.336 134.494 101.261L134.797 101.087C134.9 101.032 134.991 100.957 135.064 100.867C135.138 100.776 135.193 100.672 135.225 100.56C135.258 100.448 135.267 100.331 135.254 100.215C135.24 100.099 135.203 99.9872 135.146 99.8859C135.088 99.7845 135.011 99.6958 134.918 99.6248C134.826 99.5539 134.72 99.5022 134.607 99.4729C134.494 99.4436 134.377 99.4372 134.261 99.4541C134.146 99.471 134.035 99.5108 133.936 99.5713L133.632 99.7457C133.464 99.8407 133.333 99.9886 133.258 100.166C133.184 100.344 133.17 100.541 133.219 100.728C133.269 100.914 133.378 101.079 133.531 101.196C133.684 101.313 133.872 101.377 134.065 101.376ZM244.012 100.565C244.164 100.566 244.313 100.526 244.445 100.45L244.748 100.276C244.948 100.16 245.095 99.9696 245.155 99.7461C245.215 99.5226 245.184 99.2844 245.068 99.0839C244.952 98.8834 244.762 98.7371 244.538 98.6771C244.315 98.6171 244.077 98.6483 243.876 98.7639L243.573 98.9383C243.406 99.0338 243.275 99.1818 243.201 99.3593C243.127 99.5368 243.114 99.7338 243.163 99.9197C243.213 100.106 243.322 100.27 243.475 100.387C243.628 100.504 243.815 100.567 244.007 100.567L244.012 100.565ZM331.55 99.6358C331.743 99.6364 331.93 99.5731 332.083 99.4557C332.236 99.3384 332.346 99.1738 332.396 98.9874C332.445 98.8011 332.431 98.6037 332.357 98.426C332.282 98.2483 332.15 98.1004 331.983 98.0054L331.679 97.831C331.478 97.7165 331.24 97.6867 331.016 97.748C330.793 97.8093 330.604 97.9568 330.489 98.158C330.375 98.3591 330.345 98.5975 330.406 98.8207C330.467 99.0439 330.615 99.2336 330.816 99.3481L331.119 99.5225C331.249 99.5945 331.395 99.6323 331.543 99.6323L331.55 99.6358ZM138.923 98.6174C139.073 98.6173 139.221 98.5782 139.352 98.5041L139.655 98.3297C139.758 98.275 139.849 98.2002 139.923 98.1097C139.996 98.0193 140.051 97.915 140.083 97.803C140.116 97.6911 140.125 97.5737 140.112 97.4579C140.098 97.3422 140.062 97.2303 140.004 97.129C139.946 97.0276 139.869 96.9388 139.776 96.8679C139.684 96.797 139.578 96.7453 139.465 96.716C139.352 96.6866 139.235 96.6803 139.12 96.6972C139.004 96.7141 138.893 96.7539 138.794 96.8144L138.49 96.9887C138.323 97.0838 138.191 97.2317 138.116 97.4094C138.042 97.5871 138.028 97.7845 138.077 97.9708C138.127 98.1571 138.237 98.3218 138.39 98.4391C138.543 98.5564 138.73 98.6197 138.923 98.6192V98.6174ZM248.862 97.7909C249.013 97.7908 249.162 97.7511 249.294 97.6758L249.596 97.5014C249.796 97.3858 249.943 97.1953 250.003 96.9717C250.063 96.7482 250.031 96.51 249.916 96.3095C249.8 96.109 249.61 95.9627 249.386 95.9027C249.163 95.8427 248.924 95.8739 248.724 95.9895L248.422 96.1639C248.255 96.2594 248.125 96.4075 248.05 96.585C247.976 96.7625 247.963 96.9595 248.013 97.1453C248.062 97.3312 248.172 97.4954 248.324 97.6125C248.477 97.7296 248.664 97.7929 248.856 97.7926L248.862 97.7909ZM326.699 96.8771C326.891 96.877 327.078 96.8134 327.23 96.6962C327.383 96.579 327.492 96.4147 327.541 96.229C327.591 96.0433 327.577 95.8464 327.503 95.6691C327.429 95.4918 327.298 95.3439 327.131 95.2484L326.828 95.0741C326.728 95.0136 326.618 94.9737 326.502 94.9568C326.387 94.9399 326.269 94.9463 326.157 94.9757C326.044 95.005 325.938 95.0567 325.845 95.1276C325.753 95.1985 325.675 95.2873 325.618 95.3886C325.56 95.49 325.524 95.6019 325.51 95.7176C325.496 95.8334 325.506 95.9508 325.539 96.0627C325.571 96.1747 325.626 96.279 325.699 96.3694C325.773 96.4599 325.864 96.5347 325.967 96.5894L326.268 96.7638C326.398 96.834 326.544 96.87 326.692 96.8684L326.699 96.8771ZM143.776 95.8605C143.926 95.8607 144.074 95.821 144.205 95.7454L144.508 95.571C144.709 95.4568 144.857 95.2673 144.918 95.0443C144.98 94.8213 144.95 94.583 144.836 94.3818C144.722 94.1806 144.532 94.033 144.309 93.9715C144.086 93.9101 143.848 93.9397 143.647 94.0539L143.343 94.2283C143.176 94.3234 143.044 94.4713 142.969 94.649C142.895 94.8267 142.881 95.0241 142.93 95.2104C142.98 95.3967 143.09 95.5614 143.243 95.6787C143.396 95.796 143.583 95.8593 143.776 95.8588V95.8605ZM253.704 95.0165C253.856 95.0159 254.005 94.9756 254.137 94.8997L254.44 94.7253C254.641 94.6097 254.787 94.4191 254.847 94.1954C254.908 93.9717 254.876 93.7333 254.761 93.5326C254.645 93.3318 254.455 93.1853 254.231 93.1251C254.007 93.0649 253.769 93.0961 253.568 93.2117L253.266 93.3861C253.099 93.4816 252.969 93.6296 252.895 93.8071C252.821 93.9846 252.807 94.1816 252.857 94.3675C252.906 94.5533 253.016 94.7176 253.169 94.8347C253.321 94.9517 253.508 95.0151 253.701 95.0148L253.704 95.0165ZM321.85 94.1202C322.042 94.1208 322.23 94.0575 322.383 93.9402C322.536 93.8228 322.645 93.6582 322.695 93.4718C322.744 93.2855 322.731 93.0881 322.656 92.9104C322.581 92.7327 322.45 92.5848 322.282 92.4898L321.979 92.3154C321.879 92.2549 321.768 92.2151 321.653 92.1982C321.537 92.1813 321.42 92.1877 321.307 92.217C321.194 92.2463 321.088 92.298 320.996 92.3689C320.903 92.4399 320.826 92.5286 320.768 92.63C320.711 92.7313 320.674 92.8432 320.66 92.959C320.647 93.0748 320.657 93.1921 320.689 93.304C320.722 93.416 320.776 93.5203 320.85 93.6107C320.923 93.7012 321.014 93.776 321.117 93.8307L321.421 94.0051C321.549 94.076 321.694 94.1127 321.841 94.1115L321.85 94.1202ZM148.627 93.1036C148.777 93.1029 148.925 93.0632 149.056 92.9885L149.359 92.8141C149.462 92.7594 149.553 92.6846 149.627 92.5941C149.7 92.5037 149.755 92.3994 149.787 92.2874C149.82 92.1755 149.83 92.0581 149.816 91.9423C149.802 91.8266 149.766 91.7147 149.708 91.6133C149.65 91.512 149.573 91.4232 149.481 91.3523C149.388 91.2814 149.282 91.2297 149.169 91.2004C149.057 91.171 148.939 91.1647 148.824 91.1816C148.708 91.1985 148.598 91.2383 148.498 91.2988L148.195 91.4731C148.027 91.5682 147.895 91.7161 147.821 91.8938C147.746 92.0715 147.732 92.2689 147.782 92.4552C147.831 92.6415 147.941 92.8062 148.094 92.9235C148.247 93.0408 148.434 93.1042 148.627 93.1036ZM258.545 92.2421C258.697 92.2418 258.847 92.2015 258.979 92.1253L259.281 91.9509C259.481 91.8353 259.628 91.6447 259.688 91.421C259.748 91.1973 259.717 90.9589 259.602 90.7582C259.486 90.5575 259.295 90.4109 259.072 90.3507C258.848 90.2906 258.61 90.3217 258.409 90.4373L258.105 90.6117C257.938 90.7072 257.808 90.8553 257.734 91.0328C257.66 91.2103 257.646 91.4073 257.696 91.5931C257.745 91.779 257.855 91.9432 258.008 92.0603C258.16 92.1774 258.347 92.2407 258.54 92.2404L258.545 92.2421ZM317 91.3703C317.193 91.3704 317.38 91.3069 317.533 91.1894C317.685 91.072 317.795 90.9073 317.844 90.7211C317.893 90.5349 317.879 90.3376 317.804 90.1601C317.73 89.9825 317.598 89.8348 317.431 89.7398L317.127 89.5654C317.028 89.505 316.917 89.4651 316.802 89.4482C316.686 89.4313 316.569 89.4377 316.456 89.4671C316.343 89.4964 316.237 89.548 316.145 89.619C316.052 89.6899 315.975 89.7787 315.917 89.88C315.86 89.9814 315.823 90.0932 315.809 90.209C315.796 90.3248 315.805 90.4421 315.838 90.5541C315.87 90.666 315.925 90.7703 315.999 90.8608C316.072 90.9513 316.163 91.0261 316.266 91.0808L316.569 91.2552C316.7 91.3227 316.845 91.3563 316.991 91.3528L317 91.3703ZM153.478 90.3536C153.629 90.3535 153.776 90.3144 153.907 90.2403L154.211 90.0659C154.314 90.0112 154.404 89.9364 154.478 89.8459C154.551 89.7554 154.606 89.6512 154.639 89.5392C154.671 89.4272 154.681 89.3099 154.667 89.1941C154.654 89.0783 154.617 88.9665 154.559 88.8651C154.502 88.7638 154.424 88.675 154.332 88.6041C154.239 88.5332 154.134 88.4815 154.021 88.4522C153.908 88.4228 153.79 88.4164 153.675 88.4333C153.56 88.4502 153.449 88.4901 153.349 88.5505L153.046 88.7249C152.878 88.82 152.747 88.9679 152.672 89.1456C152.597 89.3233 152.583 89.5207 152.633 89.707C152.682 89.8933 152.792 90.058 152.945 90.1753C153.098 90.2926 153.285 90.356 153.478 90.3554V90.3536ZM263.387 89.4817C263.539 89.4817 263.688 89.442 263.82 89.3667L264.121 89.1923C264.221 89.135 264.308 89.0588 264.378 88.9678C264.448 88.8769 264.499 88.7731 264.529 88.6623C264.559 88.5516 264.566 88.436 264.552 88.3223C264.537 88.2086 264.5 88.0989 264.442 87.9995C264.385 87.9001 264.309 87.813 264.218 87.7431C264.127 87.6732 264.023 87.6219 263.912 87.5921C263.802 87.5623 263.686 87.5546 263.572 87.5694C263.459 87.5843 263.349 87.6214 263.25 87.6787L262.948 87.853C262.782 87.9489 262.652 88.0969 262.578 88.2741C262.505 88.4512 262.492 88.6476 262.541 88.8329C262.591 89.0182 262.7 89.182 262.852 89.299C263.004 89.416 263.19 89.4796 263.382 89.48L263.387 89.4817ZM312.149 88.6203C312.341 88.6205 312.529 88.5569 312.681 88.4395C312.834 88.322 312.943 88.1573 312.993 87.9711C313.042 87.7849 313.028 87.5876 312.953 87.4101C312.879 87.2326 312.747 87.0848 312.58 86.9899L312.276 86.8155C312.076 86.709 311.842 86.6848 311.624 86.7481C311.406 86.8114 311.221 86.9572 311.109 87.1545C310.997 87.3518 310.966 87.5851 311.023 87.8047C311.08 88.0244 311.221 88.2131 311.415 88.3308L311.718 88.5052C311.849 88.5703 311.994 88.6015 312.14 88.5959L312.149 88.6203ZM158.329 87.6037C158.48 87.6037 158.628 87.564 158.758 87.4886L159.062 87.3142C159.161 87.2576 159.249 87.182 159.319 87.0916C159.39 87.0013 159.442 86.8979 159.472 86.7875C159.502 86.677 159.511 86.5617 159.497 86.448C159.483 86.3343 159.446 86.2246 159.39 86.125C159.333 86.0253 159.257 85.9378 159.167 85.8675C159.077 85.7971 158.973 85.7452 158.863 85.7147C158.752 85.6843 158.637 85.6759 158.523 85.69C158.41 85.7042 158.3 85.7406 158.2 85.7971L157.897 85.9715C157.729 86.0665 157.598 86.2145 157.523 86.3921C157.448 86.5698 157.435 86.7673 157.484 86.9536C157.534 87.1399 157.643 87.3046 157.796 87.4219C157.949 87.5392 158.137 87.6025 158.329 87.6019V87.6037ZM268.228 86.7074C268.38 86.7073 268.529 86.6676 268.661 86.5923L268.964 86.4179C269.063 86.3607 269.15 86.2844 269.22 86.1935C269.29 86.1026 269.342 85.9987 269.371 85.888C269.401 85.7772 269.409 85.6617 269.394 85.548C269.379 85.4342 269.342 85.3245 269.285 85.2252C269.228 85.1258 269.151 85.0386 269.06 84.9687C268.969 84.8988 268.866 84.8475 268.755 84.8177C268.644 84.7879 268.529 84.7802 268.415 84.7951C268.301 84.8099 268.191 84.8471 268.092 84.9043L267.789 85.0787C267.622 85.1742 267.491 85.3222 267.417 85.4997C267.343 85.6772 267.33 85.8742 267.379 86.0601C267.429 86.2459 267.538 86.4102 267.691 86.5272C267.843 86.6443 268.031 86.7077 268.223 86.7074H268.228ZM307.289 85.8616C307.482 85.8618 307.669 85.7982 307.821 85.6808C307.974 85.5633 308.084 85.3986 308.133 85.2124C308.182 85.0262 308.168 84.829 308.093 84.6514C308.019 84.4739 307.887 84.3262 307.72 84.2312L307.418 84.0568C307.217 83.9412 306.978 83.9102 306.754 83.9707C306.53 84.0312 306.339 84.1782 306.223 84.3794C306.108 84.5806 306.077 84.8195 306.137 85.0435C306.198 85.2675 306.345 85.4583 306.546 85.5739L306.849 85.7483C306.985 85.8164 307.137 85.8471 307.289 85.8372V85.8616ZM163.172 84.8467C163.322 84.8461 163.47 84.8064 163.601 84.7317L163.904 84.5573C164.007 84.5026 164.098 84.4278 164.172 84.3373C164.245 84.2468 164.3 84.1425 164.332 84.0306C164.365 83.9186 164.375 83.8013 164.361 83.6855C164.347 83.5697 164.311 83.4579 164.253 83.3565C164.195 83.2552 164.118 83.1664 164.026 83.0955C163.933 83.0245 163.827 82.9729 163.714 82.9435C163.602 82.9142 163.484 82.9078 163.369 82.9247C163.253 82.9416 163.143 82.9815 163.043 83.0419L162.739 83.2163C162.572 83.3113 162.44 83.4593 162.366 83.637C162.291 83.8147 162.277 84.0121 162.327 84.1984C162.376 84.3847 162.486 84.5494 162.639 84.6667C162.792 84.784 162.979 84.8473 163.172 84.8467ZM273.062 83.933C273.214 83.9329 273.363 83.8933 273.494 83.8179L273.796 83.6436C273.996 83.5279 274.143 83.3374 274.203 83.1139C274.263 82.8904 274.232 82.6521 274.116 82.4517C274 82.2512 273.81 82.1048 273.586 82.0448C273.363 81.9848 273.125 82.0161 272.924 82.1317L272.621 82.3061C272.454 82.4016 272.323 82.5498 272.249 82.7275C272.175 82.9052 272.162 83.1024 272.211 83.2883C272.261 83.4742 272.371 83.6385 272.524 83.7554C272.677 83.8724 272.864 83.9354 273.057 83.9347L273.062 83.933ZM302.439 83.0785C302.632 83.0784 302.818 83.0148 302.971 82.8976C303.123 82.7804 303.232 82.6162 303.282 82.4304C303.331 82.2447 303.318 82.0478 303.243 81.8705C303.169 81.6932 303.039 81.5453 302.872 81.4499L302.568 81.2755C302.469 81.215 302.358 81.1751 302.243 81.1582C302.127 81.1414 302.01 81.1478 301.897 81.1771C301.784 81.2064 301.678 81.2581 301.586 81.329C301.493 81.3999 301.416 81.4887 301.358 81.59C301.301 81.6914 301.264 81.8033 301.25 81.919C301.237 82.0348 301.246 82.1522 301.279 82.2641C301.311 82.3761 301.366 82.4804 301.44 82.5708C301.513 82.6613 301.604 82.7361 301.707 82.7908L302.009 82.9652C302.14 83.0396 302.288 83.0787 302.439 83.0785ZM168.025 82.0637C168.175 82.0635 168.323 82.0245 168.454 81.9503L168.757 81.7759C168.86 81.7212 168.951 81.6464 169.025 81.5559C169.098 81.4655 169.153 81.3612 169.185 81.2492C169.218 81.1373 169.228 81.02 169.214 80.9042C169.2 80.7884 169.164 80.6765 169.106 80.5752C169.048 80.4738 168.971 80.3851 168.879 80.3141C168.786 80.2432 168.68 80.1915 168.567 80.1622C168.455 80.1329 168.337 80.1265 168.222 80.1434C168.106 80.1603 167.995 80.2001 167.896 80.2606L167.592 80.435C167.425 80.53 167.293 80.6779 167.219 80.8556C167.144 81.0333 167.13 81.2307 167.18 81.4171C167.229 81.6034 167.339 81.768 167.492 81.8854C167.645 82.0027 167.832 82.066 168.025 82.0654V82.0637ZM277.904 81.1342C278.056 81.1342 278.205 81.0945 278.337 81.0191L278.64 80.8448C278.841 80.7291 278.987 80.5386 279.047 80.3151C279.107 80.0916 279.076 79.8534 278.96 79.6529C278.845 79.4524 278.654 79.3061 278.431 79.246C278.207 79.186 277.969 79.2173 277.768 79.3329L277.467 79.5073C277.3 79.6028 277.169 79.7508 277.095 79.9283C277.021 80.1058 277.008 80.3028 277.057 80.4887C277.107 80.6745 277.216 80.8388 277.369 80.9559C277.521 81.0729 277.709 81.1363 277.901 81.136L277.904 81.1342ZM297.588 80.3216C297.781 80.3222 297.968 80.2589 298.121 80.1416C298.274 80.0243 298.384 79.8596 298.434 79.6733C298.483 79.487 298.469 79.2895 298.395 79.1118C298.32 78.9341 298.188 78.7862 298.021 78.6912L297.717 78.5168C297.618 78.4564 297.507 78.4165 297.391 78.3996C297.276 78.3827 297.159 78.3891 297.046 78.4184C296.933 78.4478 296.827 78.4994 296.735 78.5704C296.642 78.6413 296.565 78.73 296.507 78.8314C296.449 78.9327 296.413 79.0446 296.399 79.1604C296.386 79.2762 296.395 79.3935 296.428 79.5054C296.46 79.6174 296.515 79.7217 296.588 79.8122C296.662 79.9026 296.753 79.9774 296.856 80.0322L297.159 80.2065C297.289 80.2818 297.436 80.3215 297.586 80.3216H297.588ZM169.245 79.2963C169.438 79.2969 169.625 79.2339 169.778 79.117C169.931 79 170.041 78.8358 170.091 78.6498C170.141 78.4639 170.127 78.2667 170.053 78.089C169.979 77.9113 169.849 77.7632 169.681 77.6676L169.38 77.4932C169.18 77.3794 168.943 77.3494 168.72 77.4097C168.498 77.4701 168.309 77.6158 168.194 77.8152C168.079 78.0146 168.047 78.2514 168.106 78.474C168.165 78.6966 168.309 78.8869 168.508 79.0033L168.81 79.1777C168.944 79.256 169.097 79.297 169.252 79.2963H169.245ZM282.735 78.3581C282.886 78.358 283.035 78.3184 283.167 78.243L283.471 78.0686C283.671 77.953 283.818 77.7624 283.878 77.5387C283.938 77.315 283.907 77.0766 283.791 76.8759C283.676 76.6752 283.485 76.5286 283.261 76.4684C283.038 76.4083 282.799 76.4394 282.599 76.555L282.295 76.7294C282.128 76.8251 281.997 76.9736 281.923 77.1517C281.849 77.3297 281.836 77.5272 281.886 77.7134C281.937 77.8995 282.047 78.0637 282.201 78.1804C282.354 78.2971 282.542 78.3596 282.735 78.3581ZM292.727 77.5612C292.919 77.5618 293.107 77.4985 293.26 77.3812C293.413 77.2639 293.522 77.0992 293.572 76.9129C293.621 76.7265 293.608 76.5291 293.533 76.3514C293.458 76.1737 293.327 76.0258 293.159 75.9308L292.856 75.7564C292.756 75.6998 292.646 75.6634 292.533 75.6493C292.419 75.6352 292.304 75.6436 292.193 75.674C292.083 75.7044 291.979 75.7563 291.889 75.8267C291.799 75.8971 291.723 75.9846 291.666 76.0842C291.61 76.1838 291.573 76.2936 291.559 76.4073C291.545 76.521 291.553 76.6363 291.584 76.7467C291.614 76.8572 291.666 76.9605 291.737 77.0509C291.807 77.1413 291.895 77.2169 291.994 77.2735L292.298 77.4479C292.431 77.5241 292.582 77.5638 292.735 77.5629L292.727 77.5612ZM164.408 76.5149C164.601 76.5156 164.788 76.4525 164.941 76.3356C165.094 76.2187 165.204 76.0544 165.253 75.8685C165.303 75.6825 165.29 75.4854 165.216 75.3077C165.142 75.13 165.011 74.9818 164.844 74.8862L164.543 74.7119C164.443 74.6537 164.334 74.6158 164.22 74.6002C164.106 74.5846 163.99 74.5917 163.879 74.6211C163.768 74.6505 163.663 74.7016 163.572 74.7714C163.481 74.8413 163.404 74.9285 163.346 75.0281C163.289 75.1277 163.252 75.2376 163.237 75.3517C163.222 75.4657 163.23 75.5815 163.26 75.6925C163.29 75.8034 163.342 75.9074 163.413 75.9982C163.483 76.0891 163.571 76.1652 163.671 76.222L163.972 76.3964C164.108 76.4732 164.261 76.5123 164.417 76.5097L164.408 76.5149ZM287.577 75.5907C287.729 75.5901 287.878 75.5498 288.01 75.4739L288.311 75.2995C288.512 75.1839 288.659 74.9933 288.719 74.7696C288.779 74.5459 288.748 74.3075 288.632 74.1068C288.517 73.9061 288.326 73.7595 288.102 73.6993C287.879 73.6391 287.64 73.6703 287.439 73.7859L287.138 73.9603C286.971 74.0558 286.84 74.2038 286.766 74.3813C286.692 74.5588 286.679 74.7559 286.728 74.9417C286.778 75.1275 286.887 75.2918 287.04 75.4089C287.193 75.5259 287.38 75.5893 287.572 75.589L287.577 75.5907ZM159.574 73.7284C159.767 73.729 159.954 73.666 160.107 73.549C160.26 73.4321 160.37 73.2679 160.42 73.0819C160.469 72.896 160.456 72.6988 160.382 72.5211C160.308 72.3434 160.177 72.1953 160.01 72.0997L159.709 71.9253C159.509 71.8115 159.272 71.7815 159.049 71.8418C158.827 71.9021 158.638 72.0479 158.523 72.2473C158.408 72.4467 158.376 72.6835 158.435 72.9061C158.494 73.1287 158.638 73.319 158.837 73.4354L159.14 73.6098C159.275 73.6863 159.428 73.7254 159.583 73.7231L159.574 73.7284ZM154.739 70.9383C154.932 70.9394 155.119 70.8766 155.272 70.7598C155.426 70.643 155.536 70.4788 155.586 70.2927C155.636 70.1067 155.623 69.9093 155.549 69.7315C155.475 69.5536 155.344 69.4053 155.177 69.3096L154.873 69.1352C154.774 69.0771 154.664 69.0391 154.55 69.0235C154.436 69.008 154.321 69.0151 154.209 69.0445C154.098 69.0739 153.994 69.125 153.903 69.1948C153.811 69.2646 153.735 69.3519 153.677 69.4514C153.62 69.551 153.582 69.661 153.568 69.775C153.553 69.889 153.561 70.0049 153.591 70.1158C153.621 70.2268 153.673 70.3307 153.743 70.4216C153.814 70.5125 153.901 70.5885 154.001 70.6454L154.303 70.8197C154.436 70.8966 154.587 70.9369 154.741 70.9366L154.739 70.9383ZM149.905 68.1483C150.098 68.1489 150.285 68.0859 150.438 67.9689C150.591 67.852 150.701 67.6877 150.75 67.5018C150.8 67.3159 150.787 67.1187 150.713 66.941C150.639 66.7633 150.508 66.6151 150.341 66.5196L150.039 66.3452C149.839 66.2314 149.602 66.2014 149.38 66.2617C149.158 66.322 148.969 66.4678 148.853 66.6672C148.738 66.8666 148.707 67.1034 148.766 67.326C148.824 67.5486 148.969 67.7389 149.168 67.8553L149.471 68.0297C149.605 68.1086 149.758 68.1502 149.914 68.15L149.905 68.1483ZM145.071 65.3582C145.264 65.3589 145.451 65.2958 145.604 65.1789C145.757 65.0619 145.867 64.8977 145.917 64.7117C145.966 64.5258 145.953 64.3286 145.879 64.1509C145.805 63.9733 145.674 63.8251 145.507 63.7295L145.204 63.5551C145.004 63.4413 144.767 63.4113 144.545 63.4716C144.322 63.532 144.133 63.6777 144.018 63.8771C143.903 64.0765 143.871 64.3133 143.93 64.5359C143.989 64.7585 144.133 64.9488 144.332 65.0652L144.634 65.2396C144.769 65.3204 144.923 65.3632 145.08 65.3634L145.071 65.3582ZM140.236 62.5681C140.428 62.5688 140.616 62.5057 140.769 62.3888C140.921 62.2719 141.031 62.1076 141.081 61.9217C141.131 61.7357 141.118 61.5386 141.044 61.3609C140.97 61.1832 140.839 61.035 140.672 60.9394L140.37 60.7651C140.271 60.7069 140.161 60.6689 140.047 60.6534C139.933 60.6378 139.817 60.6449 139.706 60.6743C139.595 60.7037 139.491 60.7548 139.4 60.8246C139.308 60.8945 139.232 60.9817 139.174 61.0813C139.117 61.1808 139.079 61.2908 139.065 61.4048C139.05 61.5189 139.058 61.6347 139.088 61.7457C139.118 61.8566 139.17 61.9606 139.24 62.0514C139.311 62.1423 139.398 62.2183 139.498 62.2752L139.8 62.4496C139.934 62.5312 140.088 62.5752 140.245 62.5769L140.236 62.5681ZM135.402 59.7781C135.595 59.7787 135.782 59.7157 135.935 59.5988C136.088 59.4818 136.198 59.3176 136.247 59.1316C136.297 58.9457 136.284 58.7485 136.21 58.5708C136.136 58.3931 136.005 58.245 135.838 58.1494L135.536 57.975C135.336 57.8612 135.099 57.8312 134.877 57.8915C134.655 57.9518 134.466 58.0976 134.35 58.297C134.235 58.4964 134.204 58.7332 134.263 58.9558C134.321 59.1784 134.466 59.3687 134.664 59.4851L134.966 59.6595C135.1 59.7424 135.253 59.7876 135.411 59.7903L135.402 59.7781ZM130.567 56.988C130.759 56.9887 130.946 56.9256 131.099 56.8087C131.252 56.6918 131.362 56.5275 131.412 56.3416C131.462 56.1556 131.448 55.9584 131.374 55.7808C131.3 55.6031 131.17 55.4549 131.003 55.3593L130.701 55.1849C130.602 55.1268 130.492 55.0888 130.378 55.0732C130.264 55.0577 130.148 55.0648 130.037 55.0942C129.926 55.1236 129.822 55.1747 129.73 55.2445C129.639 55.3144 129.562 55.4016 129.505 55.5011C129.447 55.6007 129.41 55.7107 129.395 55.8247C129.38 55.9388 129.388 56.0546 129.418 56.1656C129.449 56.2765 129.5 56.3804 129.571 56.4713C129.641 56.5622 129.729 56.6382 129.829 56.6951L130.131 56.8694C130.264 56.9536 130.418 57 130.575 57.0037L130.567 56.988ZM125.733 54.198C125.925 54.1986 126.113 54.1356 126.265 54.0186C126.418 53.9017 126.528 53.7375 126.578 53.5515C126.628 53.3656 126.615 53.1684 126.541 52.9907C126.467 52.813 126.336 52.6648 126.169 52.5693L125.867 52.3949C125.667 52.2811 125.43 52.2511 125.208 52.3114C124.985 52.3717 124.796 52.5175 124.681 52.7169C124.566 52.9163 124.534 53.1531 124.593 53.3757C124.652 53.5983 124.797 53.7886 124.995 53.905L125.299 54.0794C125.431 54.1645 125.584 54.2121 125.742 54.2171L125.733 54.198ZM120.897 51.4079C121.09 51.4086 121.277 51.3455 121.43 51.2286C121.583 51.1116 121.693 50.9474 121.743 50.7615C121.792 50.5755 121.779 50.3783 121.705 50.2006C121.631 50.023 121.5 49.8748 121.333 49.7792L121.032 49.6048C120.932 49.5467 120.823 49.5087 120.709 49.4931C120.595 49.4776 120.479 49.4847 120.368 49.5141C120.257 49.5434 120.152 49.5945 120.061 49.6644C119.97 49.7342 119.893 49.8215 119.836 49.921C119.778 50.0206 119.741 50.1306 119.726 50.2446C119.711 50.3586 119.719 50.4745 119.749 50.5854C119.779 50.6964 119.831 50.8003 119.901 50.8912C119.972 50.9821 120.06 51.0581 120.16 51.1149L120.461 51.2893C120.595 51.3768 120.751 51.4257 120.911 51.4306L120.897 51.4079ZM116.064 48.6178C116.256 48.6185 116.443 48.5555 116.596 48.4385C116.749 48.3216 116.859 48.1573 116.909 47.9714C116.959 47.7855 116.945 47.5883 116.871 47.4106C116.797 47.2329 116.667 47.0847 116.499 46.9891L116.198 46.8148C116.099 46.7566 115.989 46.7186 115.875 46.7031C115.761 46.6875 115.645 46.6946 115.534 46.724C115.423 46.7534 115.319 46.8045 115.227 46.8743C115.136 46.9442 115.059 47.0314 115.002 47.131C114.944 47.2306 114.907 47.3405 114.892 47.4545C114.877 47.5686 114.885 47.6844 114.915 47.7954C114.945 47.9063 114.997 48.0103 115.068 48.1011C115.138 48.192 115.226 48.2681 115.326 48.3249L115.629 48.4993C115.761 48.5868 115.914 48.6368 116.072 48.644L116.064 48.6178ZM111.228 45.8278C111.421 45.8288 111.608 45.7661 111.761 45.6493C111.915 45.5325 112.025 45.3682 112.075 45.1822C112.125 44.9961 112.112 44.7988 112.038 44.6209C111.964 44.4431 111.833 44.2947 111.666 44.1991L111.362 44.0247C111.263 43.9665 111.153 43.9286 111.039 43.913C110.926 43.8974 110.81 43.9045 110.698 43.9339C110.587 43.9633 110.483 44.0144 110.392 44.0843C110.3 44.1541 110.224 44.2413 110.166 44.3409C110.109 44.4405 110.072 44.5505 110.057 44.6645C110.042 44.7785 110.05 44.8943 110.08 45.0053C110.11 45.1163 110.162 45.2202 110.232 45.3111C110.303 45.402 110.39 45.478 110.49 45.5348L110.792 45.7092C110.924 45.7983 111.078 45.8495 111.237 45.8574L111.228 45.8278ZM112.295 43.0813C112.444 43.0808 112.589 43.0424 112.719 42.9697L113.024 42.7953C113.22 42.6794 113.362 42.4918 113.421 42.2724C113.48 42.0529 113.451 41.8191 113.341 41.6207C113.23 41.4222 113.046 41.2748 112.828 41.2099C112.611 41.145 112.376 41.1676 112.175 41.273L111.87 41.4474C111.701 41.5413 111.568 41.6887 111.492 41.8664C111.416 42.0441 111.401 42.2421 111.45 42.4291C111.498 42.6162 111.608 42.7818 111.761 42.8998C111.914 43.0179 112.102 43.0817 112.295 43.0813ZM117.167 40.361C117.316 40.3605 117.462 40.3221 117.591 40.2494L117.896 40.075C117.996 40.0192 118.084 39.9441 118.155 39.8543C118.226 39.7644 118.279 39.6614 118.31 39.5512C118.341 39.441 118.35 39.3258 118.337 39.2121C118.323 39.0983 118.288 38.9883 118.232 38.8884C118.176 38.7884 118.101 38.7005 118.011 38.6295C117.921 38.5585 117.818 38.506 117.708 38.4748C117.598 38.4436 117.483 38.4345 117.369 38.4478C117.255 38.4612 117.145 38.4968 117.045 38.5527L116.742 38.7271C116.573 38.821 116.44 38.9684 116.364 39.1461C116.288 39.3238 116.273 39.5218 116.322 39.7088C116.37 39.8959 116.48 40.0615 116.633 40.1795C116.786 40.2976 116.974 40.3614 117.167 40.361ZM122.039 37.6407C122.188 37.6413 122.334 37.6028 122.463 37.5291L122.768 37.3547C122.964 37.2388 123.106 37.0512 123.165 36.8317C123.225 36.6123 123.196 36.3785 123.085 36.18C122.974 35.9816 122.791 35.8342 122.573 35.7693C122.355 35.7043 122.12 35.727 121.919 35.8324L121.614 36.0068C121.445 36.1007 121.312 36.2481 121.236 36.4258C121.16 36.6035 121.145 36.8015 121.194 36.9885C121.243 37.1756 121.352 37.3412 121.505 37.4592C121.658 37.5773 121.846 37.6411 122.039 37.6407ZM126.912 34.9204C127.06 34.9204 127.206 34.8826 127.335 34.8105L127.64 34.6362C127.836 34.5202 127.978 34.3326 128.038 34.1132C128.097 33.8938 128.068 33.6599 127.957 33.4615C127.846 33.263 127.663 33.1156 127.445 33.0507C127.227 32.9858 126.993 33.0084 126.791 33.1138L126.486 33.2882C126.317 33.3821 126.184 33.5295 126.108 33.7073C126.032 33.885 126.017 34.0829 126.066 34.27C126.115 34.457 126.224 34.6226 126.377 34.7406C126.53 34.8587 126.718 34.9225 126.912 34.9221V34.9204ZM131.784 32.2001C131.932 32.2001 132.078 32.1623 132.207 32.0902L132.513 31.9158C132.708 31.7999 132.851 31.6123 132.91 31.3929C132.969 31.1735 132.94 30.9396 132.829 30.7412C132.719 30.5427 132.535 30.3953 132.317 30.3304C132.099 30.2655 131.865 30.2881 131.663 30.3935L131.358 30.5679C131.189 30.6618 131.056 30.8092 130.98 30.9869C130.904 31.1647 130.889 31.3626 130.938 31.5497C130.987 31.7367 131.096 31.9023 131.249 32.0203C131.403 32.1384 131.59 32.2022 131.784 32.2018V32.2001ZM151.663 31.8897C151.857 31.8895 152.045 31.8246 152.198 31.7053C152.351 31.586 152.46 31.4191 152.507 31.231C152.555 31.0428 152.538 30.8443 152.46 30.6667C152.382 30.4891 152.247 30.3427 152.076 30.2505L151.769 30.0849C151.566 29.9753 151.327 29.9511 151.105 30.0176C150.884 30.0842 150.697 30.236 150.588 30.4397C150.478 30.6435 150.454 30.8824 150.521 31.1039C150.587 31.3255 150.739 31.5115 150.943 31.6211L151.25 31.7955C151.378 31.8717 151.523 31.9143 151.672 31.9193L151.663 31.8897ZM136.656 29.4798C136.804 29.4798 136.95 29.442 137.08 29.3699L137.385 29.1955C137.488 29.1415 137.579 29.0674 137.653 28.9775C137.727 28.8877 137.783 28.7839 137.816 28.6723C137.849 28.5607 137.86 28.4436 137.847 28.3278C137.834 28.2121 137.799 28.1001 137.742 27.9984C137.685 27.8967 137.609 27.8074 137.517 27.7357C137.425 27.6641 137.32 27.6116 137.207 27.5813C137.095 27.551 136.977 27.5435 136.862 27.5593C136.747 27.5751 136.636 27.6138 136.536 27.6732L136.23 27.8476C136.062 27.9419 135.93 28.0893 135.855 28.2666C135.779 28.444 135.765 28.6413 135.813 28.8278C135.862 29.0143 135.971 29.1794 136.124 29.2974C136.276 29.4154 136.463 29.4795 136.656 29.4798ZM146.747 29.2496C146.942 29.2501 147.131 29.1856 147.285 29.0661C147.438 28.9467 147.548 28.7794 147.595 28.5907C147.643 28.402 147.626 28.2028 147.547 28.0248C147.468 27.8469 147.332 27.7004 147.16 27.6087L146.854 27.4448C146.651 27.3434 146.417 27.325 146.201 27.3934C145.984 27.4617 145.803 27.6116 145.696 27.8111C145.589 28.0107 145.563 28.2442 145.625 28.4623C145.687 28.6804 145.831 28.8658 146.027 28.9793L146.336 29.1537C146.463 29.2307 146.607 29.2739 146.756 29.2792L146.747 29.2496ZM141.528 26.7595C141.677 26.7598 141.823 26.722 141.953 26.6496L142.107 26.5624C142.319 26.4933 142.496 26.3445 142.6 26.1474C142.71 25.9445 142.735 25.7064 142.67 25.4851C142.605 25.2638 142.454 25.0774 142.252 24.9669H142.236C142.107 24.8963 141.963 24.8594 141.817 24.8594C141.67 24.8594 141.526 24.8963 141.397 24.9669L141.11 25.129C140.941 25.2234 140.809 25.3707 140.734 25.5481C140.659 25.7254 140.644 25.9228 140.693 26.1093C140.741 26.2958 140.85 26.4609 141.003 26.5788C141.155 26.6968 141.342 26.7609 141.535 26.7612L141.528 26.7595Z" fill="#E8F3FF"/>
<path opacity="0.6" d="M402.047 121.131L434.631 102.317L402.251 83.6221L369.667 102.434L402.047 121.131Z" fill="white"/>
<g opacity="0.6">
<path opacity="0.6" d="M402.046 127.842C403.225 127.842 404.383 127.532 405.403 126.942L437.988 108.13C439.008 107.541 439.855 106.693 440.444 105.672C441.033 104.652 441.344 103.494 441.344 102.316C441.344 101.137 441.033 99.9795 440.444 98.9588C439.855 97.9382 439.008 97.0905 437.988 96.501L405.605 77.8058C404.585 77.2174 403.427 76.9077 402.249 76.9077C401.07 76.9077 399.913 77.2174 398.892 77.8058L366.307 96.6195C365.287 97.2088 364.44 98.0563 363.851 99.0768C363.261 100.097 362.951 101.255 362.951 102.433C362.951 103.612 363.261 104.769 363.851 105.79C364.44 106.81 365.287 107.658 366.307 108.247L398.697 126.942C399.715 127.531 400.87 127.841 402.046 127.842ZM402.249 77.7797C403.274 77.7797 404.281 78.0491 405.17 78.5609L437.552 97.256C438.438 97.7694 439.174 98.5068 439.686 99.3944C440.198 100.282 440.467 101.288 440.467 102.313C440.467 103.338 440.198 104.344 439.686 105.232C439.174 106.119 438.438 106.857 437.552 107.37L404.974 126.187C404.086 126.7 403.079 126.97 402.053 126.97C401.028 126.97 400.02 126.7 399.133 126.187L366.75 107.492C365.863 106.979 365.127 106.242 364.615 105.354C364.103 104.466 363.833 103.46 363.833 102.435C363.833 101.41 364.103 100.404 364.615 99.516C365.127 98.6284 365.863 97.8911 366.75 97.3781L399.335 78.5644C400.221 78.053 401.226 77.7825 402.249 77.7797Z" fill="white"/>
</g>
<g opacity="0.6">
<path opacity="0.6" d="M174.207 71.601C175.386 71.5997 176.543 71.2895 177.564 70.7012L210.148 51.8892C211.169 51.2997 212.016 50.452 212.605 49.4314C213.194 48.4107 213.504 47.253 213.504 46.0746C213.504 44.8961 213.194 43.7384 212.605 42.7177C212.016 41.6971 211.169 40.8494 210.148 40.2599L177.759 21.5648C176.739 20.9754 175.581 20.665 174.403 20.665C173.224 20.665 172.066 20.9754 171.046 21.5648L138.461 40.3785C137.441 40.9678 136.594 41.8152 136.004 42.8358C135.415 43.8563 135.105 45.0139 135.105 46.1923C135.105 47.3706 135.415 48.5282 136.004 49.5488C136.594 50.5693 137.441 51.4168 138.461 52.006L170.85 70.7012C171.871 71.2899 173.029 71.6002 174.207 71.601ZM174.41 21.5369C175.435 21.5378 176.442 21.8078 177.33 22.3198L209.712 41.015C210.599 41.5283 211.335 42.2657 211.847 43.1533C212.359 44.0409 212.628 45.0474 212.628 46.0719C212.628 47.0965 212.359 48.103 211.847 48.9906C211.335 49.8781 210.599 50.6156 209.712 51.1289L177.128 69.9409C176.24 70.4538 175.233 70.7238 174.207 70.7238C173.182 70.7238 172.174 70.4538 171.286 69.9409L138.904 51.2458C138.017 50.7328 137.281 49.9954 136.769 49.1078C136.257 48.2202 135.987 47.2135 135.987 46.1888C135.987 45.164 136.257 44.1573 136.769 43.2697C137.281 42.3821 138.017 41.6448 138.904 41.1318L171.482 22.3198C172.372 21.8068 173.382 21.5368 174.41 21.5369Z" fill="white"/>
</g>
<path opacity="0.6" d="M174.208 64.886L206.792 46.074L174.412 27.3789L141.827 46.1909L174.208 64.886Z" fill="white"/>
<path d="M171.82 2.63475C176.563 -0.104739 181.859 -0.992331 185.181 1.34434L190.072 4.178L187.908 5.27135C188.308 6.62299 188.501 8.02773 188.478 9.43726C188.478 20.2644 171.82 48.0883 171.82 48.0883C171.82 48.0883 155.16 39.5001 155.16 28.673C155.16 17.8458 164.203 7.03607 171.82 2.63475ZM171.82 28.094C176.681 25.2865 180.624 19.0682 180.624 14.2048C180.624 9.34135 176.681 7.67604 171.82 10.4835C166.958 13.291 163.014 19.5094 163.014 24.3728C163.014 29.2362 166.948 30.905 171.82 28.0975V28.094Z" fill="#2382DE"/>
<path d="M176.797 5.52803C184.413 1.13194 193.456 1.50337 193.456 12.3288C193.456 23.1542 176.797 50.9781 176.797 50.9781C176.797 50.9781 160.139 42.3899 160.139 31.561C160.139 20.7321 169.182 9.92586 176.797 5.52803ZM176.797 30.9873C181.661 28.1798 185.604 21.9615 185.604 17.0981C185.604 12.2346 181.661 10.5693 176.797 13.3768C171.934 16.1843 167.995 22.4079 167.995 27.2713C167.995 32.1347 171.934 33.8001 176.797 30.9926V30.9873Z" fill="#53AAFE"/>
<path d="M30.9919 148.188C35.735 145.449 41.0327 144.561 44.3546 146.898L49.2424 149.732L47.0767 150.827C47.4772 152.178 47.6695 153.582 47.6469 154.991C47.6469 165.82 30.9884 193.642 30.9884 193.642C30.9884 193.642 14.3301 185.056 14.3301 174.227C14.3301 163.398 23.3768 152.585 30.9919 148.188ZM30.9919 173.648C35.8554 170.838 39.7981 164.62 39.7981 159.758C39.7981 154.897 35.8554 153.228 30.9919 156.035C26.1285 158.843 22.1876 165.063 22.1876 169.925C22.1876 174.786 26.1285 176.46 30.9919 173.653V173.648Z" fill="#FFCD05"/>
<path d="M35.9698 151.084C43.5849 146.688 52.6282 147.059 52.6282 157.884C52.6282 168.71 35.9698 196.535 35.9698 196.535C35.9698 196.535 19.3114 187.947 19.3114 177.12C19.3114 166.293 28.3547 155.482 35.9698 151.084ZM35.9698 176.543C40.8332 173.735 44.7742 167.517 44.7742 162.654C44.7742 157.79 40.8332 156.125 35.9698 158.932C31.1064 161.74 27.1637 167.958 27.1637 172.822C27.1637 177.685 31.1064 179.356 35.9698 176.548V176.543Z" fill="#FFDB4A"/>
<path d="M166.525 162.796L149.91 158.004L173.948 109.178C173.948 109.178 186.347 137.673 166.525 162.796Z" fill="#7E3107"/>
<path d="M184.356 150.165C188.175 151.321 201.663 176.224 202.278 190.478C200.186 204.365 197.713 208.041 193.319 214.15C190.546 213.604 194.388 191.263 194.388 191.263L184.356 150.165Z" fill="#F7BA8B"/>
<path d="M193.12 179.253C188.787 176.969 183.924 175.882 179.032 176.103C175.531 176.104 172.048 176.605 168.689 177.591C168.661 177.493 168.635 177.394 168.607 177.296C164.26 161.717 168.912 152.386 176.758 149.76C184.603 147.134 187.163 153.153 187.163 153.153C190.959 159.032 192.949 169.121 194.297 179.659C193.908 179.521 193.517 179.382 193.12 179.253Z" fill="#F7BA8B"/>
<path d="M202.278 190.48C199.14 204.441 197.713 208.044 193.319 214.152L202.278 190.48Z" fill="#F7BA8B"/>
<path opacity="0.1" d="M91.191 406.951C89.1689 390.363 111.299 374.018 140.62 370.443C169.942 366.869 195.35 377.419 197.372 394.008C199.394 410.596 177.264 426.941 147.943 430.515C118.622 434.089 93.2131 423.539 91.191 406.951Z" fill="#186DD7"/>
<path d="M133.249 241.747C139.062 224.058 134.95 206.349 133.684 196.707C131.669 181.348 126.793 178.326 129.719 164.663C149.853 158.548 176.146 145.656 179.279 150.352C188.678 172.732 193.601 174.076 193.826 185.713C194.051 197.349 190.021 199.813 190.021 199.813C190.021 199.813 181.555 207.761 183.979 229.98C186.403 252.2 164.239 314.188 133.249 241.747Z" fill="#FFCD05"/>
<path d="M144.795 185.922C142.58 176.603 138.343 166.269 136.672 162.381C138.625 161.704 140.604 160.986 142.584 160.265L151.604 181.065C151.604 181.065 174.188 178.715 177.567 172.542C175.239 166.513 171.325 155.465 169.605 150.58C171.271 150.09 172.968 149.716 174.685 149.461C175.96 152.324 184.138 170.681 185.357 172.983C186.082 174.353 189.479 176.078 192.552 177.691C193.34 180.012 193.772 182.455 193.83 185.697C194.053 197.335 190.025 199.797 190.025 199.797C190.025 199.797 181.705 211.294 183.983 229.965C186.26 248.635 182.443 236.533 179.548 244.424C177.254 246.185 175.459 247.531 175.217 247.629C174.481 247.922 151.604 252.184 151.604 252.184L136.145 248.116C135.193 246.139 134.229 244.011 133.252 241.732C138.369 221.521 135.206 207.353 133.688 196.691C137.192 196.735 147.229 196.173 144.795 185.922Z" fill="url(#paint0_linear)"/>
<g style="mix-blend-mode:overlay" opacity="0.25">
<path d="M134.514 178.901C140.001 191.719 140.193 216.538 140.193 216.538L136.203 217.759C135.844 209.272 134.364 201.849 133.689 196.71C132.173 185.164 129.043 180.59 128.824 173.228C130.775 173.392 132.789 174.886 134.514 178.901Z" fill="#1D1D1B"/>
</g>
<g style="mix-blend-mode:overlay" opacity="0.2">
<path d="M145.782 192.472C140.126 190.803 131.445 172.984 129.684 164.824C129.696 164.769 129.706 164.715 129.719 164.661C147.479 159.267 170.028 148.599 177.249 149.385C181.314 156.376 191.053 174.229 187.872 179.668C183.886 186.482 152.541 194.467 145.782 192.472Z" fill="white"/>
</g>
<path d="M158.312 184.796L155.343 228.853L181.716 225.979L184.863 181.57L158.312 184.796Z" fill="white"/>
<path d="M155.339 229.751C155.372 229.753 155.405 229.753 155.437 229.751L181.812 226.879C182.021 226.856 182.216 226.761 182.362 226.609C182.508 226.457 182.596 226.259 182.611 226.049L185.749 181.638C185.759 181.506 185.739 181.373 185.691 181.249C185.643 181.126 185.568 181.014 185.472 180.923C185.376 180.831 185.261 180.762 185.135 180.721C185.009 180.679 184.875 180.666 184.743 180.683L158.192 183.909C157.985 183.934 157.792 184.031 157.648 184.182C157.504 184.334 157.418 184.532 157.404 184.74L154.44 228.797C154.432 228.92 154.449 229.043 154.49 229.159C154.531 229.275 154.596 229.381 154.68 229.471C154.764 229.561 154.866 229.632 154.979 229.681C155.091 229.731 155.213 229.756 155.336 229.756L155.339 229.751ZM180.87 225.167L156.311 227.842L159.157 185.6L183.887 182.596L180.87 225.167Z" fill="#3C3C3B"/>
<path d="M164.067 406.323C164.067 406.323 181.574 420.739 178.298 425.145C175.021 429.552 162.482 430.9 157.397 419.836C156.221 417.801 146.89 418.027 148.132 411.023C149.374 404.018 149.572 400.994 151.794 401.658C154.016 402.323 164.067 406.323 164.067 406.323Z" fill="#061E38"/>
<path d="M142.775 375.151C142.775 375.151 152.811 395.487 148.006 398.157C143.202 400.827 131.219 396.91 131.134 384.73C130.898 382.393 122.298 378.764 126.31 372.89C130.323 367.015 131.744 364.345 133.493 365.855C135.242 367.365 142.775 375.151 142.775 375.151Z" fill="#061E38"/>
<path d="M183.818 230.146C183.818 230.146 194.432 305.689 190.999 316.302C187.565 326.914 142.614 379.357 142.614 379.357C142.614 379.357 129.816 375.299 131.689 367.182C137.932 356.569 171.645 306.313 171.645 306.313L157.598 280.716L148.135 251.286C148.135 251.286 180.377 242.946 183.818 230.146Z" fill="url(#paint1_linear)"/>
<g style="mix-blend-mode:overlay" opacity="0.2">
<path d="M184.863 314.653C185.989 311.713 184.863 290.896 170.785 262.851C169.516 258.566 147.349 240.673 147.349 240.673C147.349 240.673 148.494 214.285 154.001 209.73C158.725 205.824 182.843 201.555 189.62 200.418C187.987 203.011 182.006 213.802 183.978 229.979C184.257 232.265 184.444 234.085 184.554 235.541C186.899 253.009 193.871 307.415 190.997 316.301C188.598 323.716 165.943 351.538 152.5 367.64C161.433 350.636 184.013 316.868 184.863 314.653Z" fill="white"/>
</g>
<g style="mix-blend-mode:overlay" opacity="0.25">
<path d="M161.318 276.984C161.318 276.984 176.118 302.064 174.513 307.152C173.05 311.796 141.313 363.991 133.172 373.329C131.864 371.635 131.132 369.588 131.686 367.182C137.929 356.569 171.641 306.313 171.641 306.313L158.361 282.113L161.318 276.984Z" fill="#1D1D1B"/>
</g>
<path d="M133.913 238.938C133.913 238.938 139.802 245.753 145.422 247.309C147.23 247.331 148.945 247.309 150.577 247.253C150.895 248.02 151.25 248.776 151.642 249.52C153.103 254.03 155.708 258.085 159.203 261.289C159.988 262.135 160.822 262.933 161.702 263.679C161.47 263.99 161.343 264.157 161.343 264.157L166.025 345.006C166.025 345.006 166.961 389.956 166.961 405.564C158.534 419.298 148.231 404.628 148.231 404.628L145.422 320.345C145.422 320.345 141.76 300.885 130.752 275.799C122.455 256.899 133.913 238.938 133.913 238.938Z" fill="url(#paint2_linear)"/>
<g style="mix-blend-mode:overlay" opacity="0.25">
<path d="M133.906 238.949C135.411 232.265 136.126 225.428 136.035 218.577L140.187 216.54C140.187 216.54 140.26 235.249 138.363 240.735C136.466 246.221 129.215 255.235 135.094 273.653C140.972 292.07 151.356 310.098 152.139 322.44C152.811 332.997 153.011 392.427 153.056 409.408C150.17 407.403 148.23 404.641 148.23 404.641L145.42 320.358C145.42 320.358 141.758 300.897 130.75 275.811C122.57 257.162 133.599 239.438 133.906 238.949Z" fill="#1D1D1B"/>
</g>
<path d="M123.033 168.745C123.033 168.745 125.319 162.739 133.19 165.289C141.062 167.838 134.981 185.956 133.332 191.948C129.035 207.542 124.318 222.499 126.88 224.642C125.519 225.662 113.494 238.022 114.098 222.46C114.701 206.899 118.893 182.074 123.033 168.745Z" fill="#F7BA8B"/>
<path d="M152.434 207.453C152.434 207.453 154.68 209.951 159.381 208.311C164.082 206.67 173.331 204.092 173.68 200.997C174.029 197.902 176.296 196.788 171.371 193.396C166.447 190.004 156.702 197.044 156.702 197.044C156.702 197.044 156.833 195.752 156.894 194.189C152.289 198.566 150.351 199.375 152.434 207.453Z" fill="#F7BA8B"/>
<path d="M116.819 217.141L152.882 202.687C152.882 202.687 156.45 201.292 159.456 206.349C161.055 209.041 158.128 207.366 154.858 209.92C144.687 217.872 119.409 229.909 119.409 229.909C119.409 229.909 117.166 226.131 116.819 217.141Z" fill="#F7BA8B"/>
<path d="M132.851 163.67C132.851 163.67 117.655 161.085 116.93 189.111C120.941 193.708 130.645 195.766 134.27 192.827C137.896 189.889 141.092 166.742 132.851 163.67Z" fill="#FFCD05"/>
<path d="M168.014 140.024C168.014 140.024 163.947 149.092 168.425 150.825C171.738 156.777 172.52 161.578 164.388 164.028C156.257 166.478 148.422 166.818 145.238 159.145C146.263 157.947 150.583 152.266 148.668 140.509C146.753 128.753 168.014 140.024 168.014 140.024Z" fill="#F7BA8B"/>
<g style="mix-blend-mode:overlay" opacity="0.25">
<path d="M149.007 149.116C149.253 146.717 149.215 143.864 148.669 140.516C146.751 128.761 168.015 140.026 168.015 140.026C167.549 141.112 167.162 142.231 166.858 143.374C164.679 145.765 162.025 147.676 159.067 148.987C156.099 150.298 152.364 150.218 149.007 149.116Z" fill="#1D1D1B"/>
</g>
<path d="M172.844 114.542C170.633 89.8303 128.515 101.606 135.236 126.507C138.061 136.97 152.625 148.305 163.834 143.729C175.088 139.132 173.728 124.418 172.844 114.542Z" fill="#F7BA8B"/>
<path d="M163.935 188.319L180.445 186.29L180.621 182.809L164.113 184.839L163.935 188.319Z" fill="#C6C6C5"/>
<path d="M151.299 116.592C151.299 116.592 168.594 116.925 173.416 117.863C178.237 118.801 173.925 96.6519 155.502 95.7939C137.079 94.936 130.09 116.072 130.146 125.546C130.201 135.02 128.925 162.037 155.971 168.773C147.594 150.118 146.896 136.166 151.299 116.592Z" fill="#7E3107"/>
<path d="M176.485 149.342C176.485 149.342 185.302 147.128 188.486 152.418C191.67 157.709 196.57 166.771 196.943 168.775C195.653 171.016 193.375 173.759 189.694 173.808C186.013 173.856 176.485 149.342 176.485 149.342Z" fill="#FFCD05"/>
<g style="mix-blend-mode:overlay" opacity="0.2">
<path d="M161.318 325.155C159.723 308.67 153.511 301.867 148.25 280.136C143.533 260.642 158.244 270.767 162.122 277.679L166.023 345.019C166.023 345.019 166.959 389.968 166.959 405.577C166.348 406.592 165.638 407.544 164.839 408.419C164.506 397.006 162.753 339.971 161.318 325.155Z" fill="white"/>
</g>
<path d="M191.657 211.119C191.657 211.119 195 212.523 192.25 216.043C190.063 218.833 184.957 223.1 181.595 222.438C178.233 221.775 176.596 222.799 173.984 218.922C171.371 215.046 178.486 212.355 178.486 212.355C178.486 212.355 172.765 211.248 178.442 210.174C183.358 209.244 185.791 208.969 191.657 211.119Z" fill="#F7BA8B"/>
<path d="M186.411 209.228C194.047 201.404 193.845 187.922 193.845 187.922L194.748 186.909L199.139 196.748L195.742 201.979C203.474 199.363 197.179 206.448 197.179 206.448C197.179 206.448 196.248 210.208 191.679 216.538C190.633 214.794 189.461 213.272 188.877 211.742L188.731 211.65C186.105 212.977 180.156 215.636 186.411 209.228Z" fill="#F7BA8B"/>
<g style="mix-blend-mode:overlay" opacity="0.25">
<path d="M189.445 205.235C193.098 199.053 193.726 191.643 193.832 188.96L190.126 173.789C189.985 173.789 189.844 173.812 189.699 173.813C186.018 173.862 176.49 149.348 176.49 149.348C177.249 149.174 178.018 149.051 178.794 148.98L191.685 172.556C191.685 172.556 197.994 190.044 192.704 200.183C191.797 201.976 190.705 203.669 189.445 205.235Z" fill="#1D1D1B"/>
</g>
<g style="mix-blend-mode:overlay" opacity="0.25">
<path d="M114.096 222.461C114.445 213.463 115.992 201.372 118.035 190.201C117.641 189.867 117.272 189.506 116.93 189.12C117.399 171.009 123.905 165.682 128.458 164.184C124.744 171.936 120.52 188.332 120.52 188.332C120.52 188.332 115.695 221.936 118.03 226.133C120.365 230.331 148.318 211.798 150.963 209.489C153.609 207.18 165.658 204.891 169.906 202.514C172.26 201.195 173.678 198.787 174.476 196.902C174.691 198.149 173.885 199.263 173.683 201.009C173.324 204.104 164.08 206.681 159.384 208.322C158.502 208.642 157.578 208.828 156.641 208.875C156.004 209.144 155.406 209.495 154.862 209.921C146.377 216.548 127.387 226.027 121.319 228.988C117.694 231.114 113.744 231.544 114.096 222.461Z" fill="#1D1D1B"/>
</g>
<g style="mix-blend-mode:overlay" opacity="0.25">
<path d="M174.7 219.892C176.27 219.912 178.828 219.892 182.999 219.768C189.348 219.578 195.118 211.509 198.397 205.851C197.021 208.951 195.38 211.282 193.319 214.148L193.198 214.332C192.988 214.954 192.666 215.532 192.25 216.04C190.063 218.83 184.957 223.097 181.595 222.434C178.551 221.834 176.92 222.615 174.7 219.892Z" fill="#1D1D1B"/>
</g>
<path d="M133.906 238.947C134.127 237.948 134.326 236.968 134.507 235.998L135.105 236.265C150.306 243.066 164.118 244.513 175.05 240.45C178.509 239.186 181.711 237.306 184.502 234.903C184.519 235.121 184.536 235.332 184.552 235.536C184.782 237.25 185.058 239.324 185.363 241.669C182.918 243.357 180.279 244.747 177.504 245.807C172.667 247.666 167.367 248.597 161.717 248.597C160.836 248.597 159.946 248.575 159.048 248.529C150.881 248.113 142.019 245.79 132.706 241.624L132.495 241.53C133.267 239.973 133.839 239.054 133.906 238.947Z" fill="#186DD7"/>
<path d="M187.774 261.146C184.524 257.911 180.961 249.721 182.314 249.651C183.291 249.599 184.834 248.388 186.079 247.248C186.611 251.447 187.193 256.176 187.774 261.146Z" fill="#2382DE"/>
<path d="M148.614 251.02C148.614 251.02 139.436 250.18 136.677 247.955C136.677 255.918 136.988 261.607 138.833 262.632C140.678 263.657 147.144 261.209 148.614 251.02Z" fill="#2382DE"/>
<path opacity="0.1" d="M224.143 366.668C221.974 348.88 245.706 331.352 277.148 327.52C308.591 323.687 335.838 335 338.006 352.788C340.174 370.576 316.443 388.103 285 391.936C253.558 395.769 226.311 384.456 224.143 366.668Z" fill="#186DD7"/>
<path d="M309.554 178.514L314.846 186.465L309.697 190.586L302.631 180.805L309.554 178.514Z" fill="#F7BA8B"/>
<path d="M307.781 184.554C307.781 184.554 304.377 185.077 304.281 188.118C304.185 191.159 303.329 196.976 306.36 198.058C309.391 199.139 309.673 200.701 315.004 198.968C320.335 197.235 317.548 191.806 317.548 191.806C317.548 191.806 322.256 193.939 319.512 190.155C316.767 186.371 316.828 185.72 307.781 184.554Z" fill="#F7BA8B"/>
<path d="M334.641 328C335.027 328 335.409 327.925 335.766 327.777C336.122 327.629 336.446 327.413 336.719 327.14C336.992 326.867 337.209 326.543 337.356 326.187C337.504 325.83 337.58 325.448 337.579 325.062V206.232C337.579 205.706 337.438 205.19 337.171 204.737C336.903 204.284 336.519 203.911 336.059 203.658L303.467 185.714C303.129 185.517 302.754 185.39 302.365 185.34C301.977 185.289 301.582 185.318 301.204 185.422C300.826 185.527 300.473 185.706 300.166 185.949C299.858 186.192 299.603 186.494 299.414 186.837C299.225 187.181 299.106 187.558 299.065 187.948C299.024 188.338 299.062 188.732 299.175 189.107C299.289 189.482 299.476 189.831 299.726 190.132C299.976 190.434 300.284 190.683 300.632 190.864L331.701 207.968V325.062C331.701 325.448 331.777 325.83 331.925 326.187C332.073 326.543 332.289 326.867 332.562 327.14C332.835 327.413 333.159 327.629 333.516 327.777C333.873 327.925 334.255 328 334.641 328Z" fill="#868686"/>
<path d="M314.994 198.965C314.994 198.965 316.304 199.008 316.107 198.028C315.91 197.048 311.503 194.257 310.572 193.864C309.641 193.472 303.805 189.268 304.087 192.984C304.37 196.7 314.994 198.965 314.994 198.965Z" fill="#F7BA8B"/>
<path d="M290.703 142.116L312.152 182.417C312.152 182.417 311.463 191.568 305.264 184.452C296.262 174.114 276.84 146.161 276.84 146.161C276.84 146.161 280.139 129.834 290.703 142.116Z" fill="#F7BA8B"/>
<path d="M246.465 355.428C246.465 355.428 254.874 351.152 258.928 359.409C262.982 367.666 275.22 381.97 269.321 385.217C263.422 388.464 239.83 372.836 240.714 362.51C241.598 352.183 246.465 355.428 246.465 355.428Z" fill="#061E38"/>
<path d="M273.601 344.22C273.601 344.22 269.997 357.198 276.74 357.492C283.484 357.787 309.583 361.474 312.68 358.671C315.777 355.869 301.326 343.778 287.759 341.124C274.193 338.47 273.601 344.22 273.601 344.22Z" fill="#061E38"/>
<path d="M244.698 347.021C244.698 347.021 242.192 362.651 249.713 364.421C257.234 366.191 258.258 357.932 257.086 347.021C255.914 336.11 244.698 347.021 244.698 347.021Z" fill="#F09C98"/>
<path d="M236.791 196.412L242.048 362.033C242.048 362.033 250.012 373.83 259.744 362.033C262.103 338.735 268.144 230.079 268.144 230.079L274.51 229.518L287.432 278.42L276.702 347.621C276.702 347.621 287.165 354.333 294.234 349.016C297.872 331.615 312.232 274.598 312.232 274.598L303.625 189.219L236.791 196.412Z" fill="url(#paint3_linear)"/>
<path d="M304.779 114.573C303.696 103.064 297.049 94.8979 284.706 95.796C278.38 96.2674 272.124 97.4245 266.047 99.2469C260.176 101.001 254.347 104.93 250.116 109.565C248.778 111.05 247.583 112.658 246.548 114.369C245.53 115.111 244.712 116.095 244.168 117.232C240.442 124.863 238.965 132.403 238.476 140.463C238.194 141.411 238.056 142.396 238.067 143.386C238.33 161.097 236.729 178.755 236.79 196.419C236.837 209.683 247.103 215.922 259.393 217.83C271.804 219.748 296.273 208.064 300.494 202.561C304.215 197.706 304.004 181.001 304.566 166.827C305.26 149.309 306.42 132.03 304.779 114.573Z" fill="#FFCD05"/>
<path d="M300.496 205.441C304.217 200.587 304.006 181.002 304.567 166.827C304.782 161.381 305.036 155.96 305.244 150.549C304.674 147.624 303.511 140.804 302.203 128.249C300.229 104.708 290.9 97.766 286.233 95.752C285.731 95.752 285.23 95.752 284.706 95.7955C281.796 96.014 278.899 96.3818 276.027 96.8976L280.754 97.9823C297.651 101.86 295.662 129.576 295.662 129.576L269.99 141.743C269.99 141.743 273.441 120.263 264.289 111.429C261.454 108.693 256.655 107.374 253.012 106.743C251.998 107.631 251.032 108.573 250.118 109.564C249.999 109.694 249.9 109.84 249.783 109.973C253.996 110.496 259.34 111.586 260.66 113.783C263.26 118.106 266.84 124.648 260.449 153.03C258.556 161.437 237.588 167.852 237.588 167.852L237.414 172.404C237.088 180.409 236.772 188.412 236.8 196.416C236.847 209.679 247.113 218.799 259.403 220.705C271.805 222.633 296.274 210.947 300.496 205.441Z" fill="url(#paint4_linear)"/>
<g style="mix-blend-mode:overlay" opacity="0.2">
<path d="M251.814 107.828C255.839 103.962 260.927 100.777 266.05 99.2464C272.127 97.424 278.383 96.2669 284.709 95.7954C285.326 95.7501 285.93 95.7344 286.514 95.7344C290.962 98.1757 297.5 104.647 299.998 115.129C303.521 129.904 295.438 131.962 292.647 133.283C289.855 134.605 272.07 143.92 270.017 143.455C268.089 143.012 271.864 113.01 251.814 107.828Z" fill="white"/>
</g>
<g style="mix-blend-mode:overlay" opacity="0.25">
<path d="M247.48 366.566C244.137 365.131 242.048 362.032 242.048 362.032L236.834 197.753C236.81 197.336 236.796 196.914 236.793 196.487C236.793 196.461 236.793 196.437 236.793 196.411V196.374C236.793 195.328 236.793 194.284 236.793 193.244C236.793 192.858 236.793 192.473 236.805 192.088C236.805 191.423 236.819 190.757 236.829 190.093C236.837 189.607 236.847 189.12 236.859 188.633C236.869 188.077 236.88 187.519 236.894 186.963C236.908 186.406 236.922 185.848 236.937 185.292C236.949 184.82 236.962 184.349 236.976 183.876C236.995 183.238 237.016 182.602 237.037 181.958L237.073 180.87C237.099 180.11 237.126 179.349 237.155 178.589C237.155 178.429 237.167 178.268 237.173 178.108C237.579 167.352 238.147 156.591 238.086 145.811L257.868 137.526C257.868 137.526 253.922 201.794 254.431 207.613C254.886 212.778 248.865 337.966 247.48 366.566Z" fill="#1D1D1B"/>
</g>
<path d="M283.544 102.018C283.252 96.715 281.626 91.1855 280.672 85.9593C280.36 84.233 278.057 82.9199 276.412 83.5407C272.87 84.9209 269.103 85.6373 265.301 85.6542C263.557 85.6664 261.568 87.2654 261.782 89.1731C262.068 91.6947 262.551 94.5248 261.92 97.0202C261.299 99.472 259.944 100.609 258.347 102.279C253.178 107.685 259.709 108.949 262.788 110.728C269.612 114.667 279.206 115.33 283.307 107.3C283.728 106.482 283.607 103.082 283.544 102.018Z" fill="#F7BA8B"/>
<g style="mix-blend-mode:overlay" opacity="0.25">
<path d="M283.179 98.5273C280.509 100.677 274.763 103.52 265.554 99.3887C264.205 98.7836 262.939 98.1925 261.744 97.617C261.807 97.4269 261.866 97.2334 261.919 97.0276C262.55 94.5288 262.067 91.6986 261.781 89.1806C261.566 87.2729 263.558 85.6738 265.3 85.6616C267.105 85.6531 268.907 85.4857 270.683 85.1611C274.987 88.6487 279.726 92.499 282.516 94.7676C282.769 96.0197 282.998 97.277 283.179 98.5273Z" fill="#1D1D1B"/>
</g>
<path d="M294.972 66.0404C292.623 51.6908 276.243 49.8232 265.589 57.0215C261.849 59.5473 259.137 63.3278 257.942 67.6795C257.595 68.6904 257.355 69.7348 257.226 70.7957C257.065 72.2012 257.189 73.9153 257.555 75.7201C257.502 76.6285 257.553 77.5399 257.705 78.437C257.542 78.9986 257.491 79.5872 257.557 80.1685C257.622 80.7498 257.802 81.3123 258.087 81.8234L260.963 87.0757C261.469 88.0209 262.326 88.7297 263.35 89.0496C267.146 95.6115 276.327 99.8751 283.63 98.8567C299.539 96.6316 296.897 77.7952 294.972 66.0404Z" fill="#F7BA8B"/>
<path d="M300.384 57.7623C297.294 49.5822 288.719 44.874 280.218 44.9995C280.123 44.9995 280.027 45.0135 279.932 45.0152C272.481 43.1912 262.744 47.2682 258.09 52.3478C253.085 57.8111 251.516 65.2431 252.89 72.1764C253.155 75.5001 254.424 78.8028 256.942 81.8527C257.33 83.1021 257.856 84.3041 258.512 85.4362C259.577 87.2125 260.816 88.879 262.21 90.4112C262.592 87.5183 263.311 84.6689 263.412 81.7376C263.436 81.1393 263.585 80.5527 263.848 80.0148C263.759 79.6009 263.58 79.2115 263.325 78.8743C263.164 78.6633 263.021 78.4401 262.871 78.2221C260.177 63.243 285.286 65.5622 294.939 68.4255C295.975 68.7324 296.818 68.5371 297.438 68.0768C301.655 67.7437 301.758 61.4068 300.384 57.7623Z" fill="#642500"/>
<path d="M270.074 78.7412C269.269 76.5318 268.182 74.3277 266.587 72.5751C264.71 70.5245 261.472 69.677 259.296 71.8288C257.327 73.7749 257.501 76.9451 259.264 78.9469C260.633 80.5041 262.654 81.0168 264.295 82.1921C264.591 82.3859 264.923 82.5191 265.271 82.584C265.618 82.649 265.976 82.6444 266.322 82.5705C268.437 83.0082 270.923 81.0674 270.074 78.7412Z" fill="#F7BA8B"/>
<path d="M261.432 213.65C261.432 213.65 248.571 212.47 244.705 209.354C244.705 220.514 245.14 228.485 247.726 229.93C250.312 231.376 259.369 227.927 261.432 213.65Z" fill="#2382DE"/>
<path d="M306.774 219.962C303.412 218.511 299.583 215.377 296.332 209.521C296.332 209.521 301.116 207.181 305.203 204.372L306.774 219.962Z" fill="#2382DE"/>
<path d="M236.919 200.45C243.884 203.763 255.248 207.999 268.857 208.581C286.452 209.334 299.668 201.545 304.575 198.129L305.307 205.402C298.749 209.432 286.774 215.099 271.303 215.099C270.41 215.099 269.502 215.08 268.585 215.042C255.651 214.487 244.726 210.979 237.155 207.694L236.919 200.45Z" fill="#186DD7"/>
<path d="M270.616 357.906C271.396 357.906 272.143 357.596 272.695 357.045C273.246 356.493 273.556 355.746 273.556 354.966V236.137C273.556 235.611 273.415 235.095 273.147 234.642C272.879 234.189 272.495 233.817 272.034 233.563L239.442 215.618C238.761 215.264 237.968 215.19 237.234 215.412C236.499 215.635 235.88 216.136 235.51 216.808C235.139 217.481 235.047 218.271 235.252 219.011C235.457 219.751 235.943 220.381 236.607 220.767L267.678 237.874V354.966C267.678 355.745 267.987 356.493 268.538 357.044C269.089 357.595 269.836 357.905 270.616 357.906Z" fill="#868686"/>
<path d="M245.461 114.592C245.461 114.592 250.344 109.535 257.167 115.49C263.991 121.445 262.298 131.359 251.35 145.26C240.403 159.162 232.664 172.791 230.857 173.234C229.05 173.677 224.963 177.138 217.66 168.77C224.906 154.258 235.068 129.772 245.461 114.592Z" fill="#F7BA8B"/>
<path d="M245.211 206.235L249.266 214.885L243.563 218.194L238.025 207.473L245.211 206.235Z" fill="#F7BA8B"/>
<path d="M241.73 212.331C241.73 212.331 238.324 212.838 238.222 215.888C238.119 218.938 237.247 224.743 240.276 225.828C243.305 226.913 243.589 228.479 248.918 226.757C254.247 225.036 251.48 219.608 251.48 219.608C251.48 219.608 256.174 221.751 253.447 217.962C250.719 214.172 250.773 213.522 241.73 212.331Z" fill="#F7BA8B"/>
<path d="M231.969 167.441L247.203 210.476C247.203 210.476 245.166 219.423 240.092 211.466C232.723 199.91 217.663 169.385 217.663 169.385C217.663 169.385 223.345 153.728 231.969 167.441Z" fill="#F7BA8B"/>
<path d="M257.04 148.054C257.738 146.775 258.427 145.486 259.108 144.188C267.323 128.511 264.479 117.464 256.685 112.859C248.89 108.253 245.012 114.121 245.012 114.121C240.303 118.843 235.77 127.887 232.61 136.647C237.571 146.971 257.04 148.054 257.04 148.054Z" fill="#FFCD05"/>
<g style="mix-blend-mode:overlay" opacity="0.25">
<path d="M286.426 226.324C286.426 226.324 294.733 273.073 294.498 279.593C294.299 285.121 284.797 334.987 281.909 350.042C280.09 349.436 278.345 348.629 276.706 347.634L287.435 278.434L274.514 229.531L286.426 226.324Z" fill="#1D1D1B"/>
</g>
<path d="M268.855 67.8741C268.855 67.8741 275.272 75.8415 287.983 78.3107C300.693 80.7799 311.995 73.6931 311.995 73.6931C311.995 73.6931 316.304 70.5229 299.054 64.9986C281.805 59.4743 268.855 67.8741 268.855 67.8741Z" fill="url(#paint5_linear)"/>
<path d="M301.795 66.594C301.795 66.594 284.608 72.9797 267.782 68.6865C250.956 64.3933 251.739 63.8615 253.019 58.9004C254.299 53.9393 256.987 40.1669 274.62 41.7921C292.253 43.4173 302.288 48.9172 301.795 66.594Z" fill="url(#paint6_linear)"/>
<path d="M411.699 383.823L411.932 383.832L411.95 411.316C411.924 412.036 411.458 412.748 410.529 413.295C408.589 414.436 405.367 414.444 403.365 413.313C402.382 412.755 401.872 412.022 401.836 411.286C401.836 411.239 401.836 411.21 401.836 411.178L401.822 383.618L402.113 383.597C402.398 383.175 402.777 382.826 403.222 382.578C405.161 381.438 408.384 381.429 410.386 382.563C410.936 382.847 411.392 383.285 411.699 383.823Z" fill="#9C9B9B"/>
<path d="M406.812 386.623C404.014 386.594 401.759 385.263 401.776 383.649C401.792 382.035 404.073 380.75 406.871 380.778C409.668 380.806 411.923 382.138 411.907 383.752C411.89 385.366 409.609 386.651 406.812 386.623Z" fill="#E00AC3"/>
<path d="M371.225 414.118L261.22 350.816V360.951L371.225 424.253V414.118Z" fill="#9C9B9B"/>
<path d="M462.922 361.217L371.225 414.12V424.255L462.922 371.352V361.217Z" fill="#C6C6C5"/>
<path d="M371.225 414.115L462.922 361.218L352.915 297.923L261.218 350.819L371.225 414.115Z" fill="#D9D9D9"/>
<path d="M276.848 369.475L276.538 368.875L280.109 366.783C281.951 365.824 284.397 365.984 287.084 367.538C292.696 370.778 297.289 378.846 297.289 385.469C297.289 388.723 296.175 391.041 294.382 392.176L294.34 392.205C294.267 392.253 294.187 392.289 294.112 392.331L290.349 394.535L289.883 393.838C288.619 393.775 287.224 393.348 285.756 392.5C280.144 389.258 275.551 381.19 275.551 374.567C275.555 372.45 276.027 370.734 276.848 369.475Z" fill="#061E38"/>
<path d="M276.109 385.747C272.21 378.694 272.35 371.153 276.42 368.903C280.49 366.653 286.95 370.547 290.849 377.601C294.747 384.654 294.608 392.195 290.538 394.445C286.467 396.695 280.007 392.801 276.109 385.747Z" fill="#094AA8"/>
<path d="M278.411 384.271C275.86 379.315 276.064 374.127 278.868 372.684C281.671 371.241 286.012 374.088 288.563 379.044C291.115 384 290.911 389.188 288.107 390.631C285.304 392.074 280.963 389.227 278.411 384.271Z" fill="#B1B1B1"/>
<path d="M327.731 383.559L273.557 351.845L329.088 346.151L383.26 351.414L327.731 383.559Z" fill="#5CAFF6"/>
<path d="M273.556 351.849V317.489L328.408 318.595L327.73 383.563L273.556 351.849Z" fill="#CAA173"/>
<path d="M383.26 317.053V351.437L327.731 383.582V336.376L383.26 317.053Z" fill="#DAB78D"/>
<path d="M327.731 349.203L273.557 317.488L329.088 285.342L383.26 317.056L327.731 349.203Z" fill="#F7D0A0"/>
<path d="M352.608 334.88L298.052 303.257L305.592 298.902L360.148 330.526L352.608 334.88Z" fill="#EBDECE"/>
<path d="M360.148 330.508L352.608 334.862V369.239L360.148 364.885V330.508Z" fill="#DBCFC1"/>
<g style="mix-blend-mode:overlay" opacity="0.2">
<path d="M327.725 383.562L273.553 351.848V317.495L297.526 331.531C300.777 340.4 320.926 357.398 328.062 351.713L327.725 383.562Z" fill="#1D1D1B"/>
</g>
<g style="mix-blend-mode:overlay" opacity="0.2">
<path d="M327.724 351.057C342.975 380.452 366.527 359.75 383.255 336.554C383.255 343.149 383.255 347.517 383.255 351.416C380.536 353.073 374.822 356.316 365.219 361.879L327.727 383.584L327.724 351.057Z" fill="#1D1D1B"/>
</g>
<path d="M341.964 343.454L287.79 311.74L343.32 279.595L397.493 311.309L341.964 343.454Z" fill="#5CAFF6"/>
<path d="M287.788 311.74V250.927L342.641 252.034L341.962 343.454L287.788 311.74Z" fill="#CAA173"/>
<path d="M397.493 250.492V311.326L341.964 343.473V269.813L397.493 250.492Z" fill="#DAB78D"/>
<path d="M341.964 282.64L287.79 250.926L343.32 218.781L397.493 250.496L341.964 282.64Z" fill="#F7D0A0"/>
<path d="M366.837 268.317L312.28 236.694L319.821 232.339L374.377 263.963L366.837 268.317Z" fill="#EBDECE"/>
<path d="M374.377 263.945L366.837 268.3V329.126L374.377 324.774V263.945Z" fill="#DBCFC1"/>
<g style="mix-blend-mode:overlay" opacity="0.2">
<path d="M341.962 343.454L287.793 311.74V250.927L311.766 264.961C315.017 273.831 335.166 317.274 342.302 311.597L341.962 343.454Z" fill="#1D1D1B"/>
</g>
<g style="mix-blend-mode:overlay" opacity="0.2">
<path d="M341.962 310.948C357.213 340.341 380.765 319.641 397.493 296.443C397.493 303.04 397.484 307.407 397.493 311.306C394.774 312.964 389.06 316.206 379.457 321.768L341.965 343.472L341.962 310.948Z" fill="#1D1D1B"/>
</g>
<path d="M341.825 275.392L304.21 253.371L342.767 231.051L380.382 253.071L341.825 275.392Z" fill="#5CAFF6"/>
<path d="M304.212 253.369V211.144L342.298 211.913L341.827 275.39L304.212 253.369Z" fill="#CAA173"/>
<path d="M380.382 210.843V253.085L341.825 275.405V224.26L380.382 210.843Z" fill="#DAB78D"/>
<path d="M341.825 233.165L304.21 211.143L342.767 188.822L380.382 210.845L341.825 233.165Z" fill="#F7D0A0"/>
<path d="M359.101 223.222L321.221 201.264L326.456 198.242L364.336 220.2L359.101 223.222Z" fill="#EBDECE"/>
<path d="M364.336 220.185L359.101 223.208V265.443L364.336 262.421V220.185Z" fill="#DBCFC1"/>
<g style="mix-blend-mode:overlay" opacity="0.2">
<path d="M341.827 275.39L304.212 253.369V211.144L320.858 220.888C323.114 227.047 337.105 257.218 342.061 253.27L341.827 275.39Z" fill="#1D1D1B"/>
</g>
<g style="mix-blend-mode:overlay" opacity="0.2">
<path d="M341.825 252.82C352.414 273.222 368.767 258.857 380.382 242.75C380.382 247.329 380.382 250.361 380.382 253.069C378.496 254.22 374.527 256.471 367.858 260.332L341.825 275.404V252.82Z" fill="#1D1D1B"/>
</g>
<path d="M446.255 300.928L445.385 363.695L367.508 343.912L412.313 281.129L446.255 300.928Z" fill="#5CAFF6"/>
<path d="M445.385 363.694L369.958 406.356L370.828 343.588L446.255 300.926L445.385 363.694Z" fill="#DAB78D"/>
<path d="M336.88 323.787L412.326 281.115L446.271 300.914L370.826 343.585L336.88 323.787Z" fill="#F7D0A0"/>
<path d="M370.83 343.587L369.96 406.355L336.015 386.556L336.886 323.788L370.83 343.587Z" fill="#CAA173"/>
<path d="M355.971 334.904L355.37 397.959L347.863 393.547L348.466 330.492L355.971 334.904Z" fill="#D4C8BA"/>
<path d="M405.017 324.272L405.62 386.25L413.125 381.937L412.522 319.858L405.017 324.272Z" fill="#EBDECE"/>
<path d="M348.448 330.5L355.955 334.912L431.397 292.243L423.89 287.831L348.448 330.5Z" fill="#EBE4DB"/>
<g style="mix-blend-mode:overlay" opacity="0.1">
<path d="M417.978 316.957C436.026 289.193 427.811 291.568 399.38 288.457C405.119 285.203 408.922 283.051 412.309 281.133C415.099 282.678 420.731 286.05 430.304 291.664C442.762 298.966 433.811 293.618 446.269 300.921L417.978 316.957Z" fill="white"/>
</g>
<path d="M412.612 319.848L405.107 324.261L370.627 304.693L378.134 300.281L412.612 319.848Z" fill="#EBDECE"/>
<path d="M446.255 300.928L445.385 363.695L367.508 343.912L412.313 281.129L446.255 300.928Z" fill="#5CAFF6"/>
<path d="M445.385 363.694L369.958 406.356L370.828 343.588L446.255 300.926L445.385 363.694Z" fill="#DAB78D"/>
<path d="M336.88 323.787L412.326 281.115L446.271 300.914L370.826 343.585L336.88 323.787Z" fill="#F7D0A0"/>
<path d="M370.83 343.587L369.96 406.355L336.015 386.556L336.886 323.788L370.83 343.587Z" fill="#CAA173"/>
<path d="M355.971 334.904L355.37 397.959L347.863 393.547L348.466 330.492L355.971 334.904Z" fill="#D4C8BA"/>
<path d="M405.017 324.272L405.62 386.25L413.125 381.937L412.522 319.858L405.017 324.272Z" fill="#EBDECE"/>
<path d="M348.448 330.5L355.955 334.912L431.397 292.243L423.89 287.831L348.448 330.5Z" fill="#EBE4DB"/>
<g style="mix-blend-mode:overlay" opacity="0.1">
<path d="M417.978 316.957C436.026 289.193 427.811 291.568 399.38 288.457C405.119 285.203 408.922 283.051 412.309 281.133C415.099 282.678 420.731 286.05 430.304 291.664C442.762 298.966 433.811 293.618 446.269 300.921L417.978 316.957Z" fill="white"/>
</g>
<path d="M412.612 319.848L405.107 324.261L370.627 304.693L378.134 300.281L412.612 319.848Z" fill="#EBDECE"/>
<path d="M421.959 280.038L421.454 304.765L376.187 305.023L402.229 268.529L421.959 280.038Z" fill="#5CAFF6"/>
<path d="M421.454 304.762L377.61 329.559L378.115 304.832L421.959 280.035L421.454 304.762Z" fill="#DAB78D"/>
<path d="M358.385 293.328L402.24 268.524L421.969 280.033L378.116 304.835L358.385 293.328Z" fill="#F7D0A0"/>
<path d="M378.115 304.832L377.609 329.559L357.88 318.052L358.386 293.323L378.115 304.832Z" fill="#CAA173"/>
<path d="M369.48 299.786L369.129 324.68L364.767 322.115L365.117 297.221L369.48 299.786Z" fill="#D4C8BA"/>
<path d="M397.99 293.604L398.341 317.872L402.704 315.365L402.353 291.039L397.99 293.604Z" fill="#EBDECE"/>
<path d="M365.109 297.227L369.472 299.792L413.321 274.99L408.958 272.425L365.109 297.227Z" fill="#EBE4DB"/>
<g style="mix-blend-mode:overlay" opacity="0.1">
<path d="M405.523 289.355C416.014 273.217 411.239 274.598 394.712 272.789C398.046 270.899 400.257 269.651 402.226 268.529C403.844 269.427 407.121 271.387 412.689 274.65C419.931 278.896 414.727 275.787 421.969 280.031L405.523 289.355Z" fill="white"/>
</g>
<path d="M402.407 291.035L398.044 293.6L378.003 282.225L382.366 279.662L402.407 291.035Z" fill="#EBDECE"/>
<g style="mix-blend-mode:overlay" opacity="0.25">
<path d="M217.659 169.382C217.659 169.382 217.717 169.224 217.834 168.957C217.778 168.892 217.722 168.831 217.659 168.767C221.888 160.299 227.111 148.434 232.792 137.004C232.729 136.883 232.666 136.765 232.618 136.644C235.779 127.884 240.311 118.84 245.019 114.118C245.019 114.118 248.146 109.398 254.422 111.757C254.567 112.824 254.009 114.437 252.423 116.814C245.774 126.806 224.026 160.165 223.29 167.952C222.554 175.74 242.158 213.966 242.158 213.966C242.158 213.966 237.521 217.921 241.439 226.312C241.091 226.148 240.717 225.98 240.281 225.823C237.253 224.734 238.123 218.927 238.227 215.884C238.294 213.948 239.689 213.038 240.7 212.63L240.097 211.462C232.719 199.911 217.659 169.382 217.659 169.382Z" fill="#1D1D1B"/>
</g>
<g style="mix-blend-mode:overlay" opacity="0.2">
<path d="M259.178 117.082C259.178 117.082 263.81 122.708 261.097 130.789C258.383 138.869 255.911 143.773 256.638 135.786C257.365 127.8 256.596 120.387 257.161 119.03C257.726 117.674 256.022 115.03 259.178 117.082Z" fill="white"/>
</g>
<path d="M270.83 181.095C270.83 185.052 273.634 186.675 277.061 184.691L291.953 176.094C295.379 174.115 298.181 169.26 298.181 165.303V149.271C298.181 145.314 295.379 143.691 291.953 145.675L277.061 154.272C273.634 156.251 270.83 161.108 270.83 165.065V181.095Z" fill="#2382DE"/>
<defs>
<linearGradient id="paint0_linear" x1="159.348" y1="408.795" x2="164.639" y2="148.706" gradientUnits="userSpaceOnUse">
<stop stop-color="#248AE6"/>
<stop offset="1" stop-color="#53AAFE"/>
</linearGradient>
<linearGradient id="paint1_linear" x1="-237694" y1="437126" x2="-226494" y2="215047" gradientUnits="userSpaceOnUse">
<stop stop-color="#248AE6"/>
<stop offset="1" stop-color="#53AAFE"/>
</linearGradient>
<linearGradient id="paint2_linear" x1="-158112" y1="505026" x2="-135270" y2="249682" gradientUnits="userSpaceOnUse">
<stop stop-color="#248AE6"/>
<stop offset="1" stop-color="#53AAFE"/>
</linearGradient>
<linearGradient id="paint3_linear" x1="-250263" y1="449594" x2="-229175" y2="232799" gradientUnits="userSpaceOnUse">
<stop stop-color="#248AE6"/>
<stop offset="1" stop-color="#53AAFE"/>
</linearGradient>
<linearGradient id="paint4_linear" x1="-229449" y1="315823" x2="-217923" y2="162854" gradientUnits="userSpaceOnUse">
<stop stop-color="#248AE6"/>
<stop offset="1" stop-color="#53AAFE"/>
</linearGradient>
<linearGradient id="paint5_linear" x1="-90957.9" y1="4737.43" x2="-89826.8" y2="1699.45" gradientUnits="userSpaceOnUse">
<stop stop-color="#248AE6"/>
<stop offset="1" stop-color="#53AAFE"/>
</linearGradient>
<linearGradient id="paint6_linear" x1="-116616" y1="29345.4" x2="-112907" y2="19334.6" gradientUnits="userSpaceOnUse">
<stop stop-color="#248AE6"/>
<stop offset="1" stop-color="#53AAFE"/>
</linearGradient>
</defs>
</svg>
